{"glyphs":{"0":{"ha":917,"x_min":0,"x_max":0,"o":"m 458 -14 b 56 521 218 -14 56 218 b 458 1056 56 824 232 1056 b 861 521 685 1056 861 824 b 458 -14 861 218 699 -14 m 458 1049 b 299 521 328 1049 299 808 b 458 -7 299 233 314 -7 b 618 521 603 -7 618 233 b 458 1049 618 808 596 1049 "},"1":{"ha":688,"x_min":0,"x_max":0,"o":"m 250 8 l 250 1033 l 93 1033 l 93 1042 l 465 1042 l 465 8 l 618 8 l 618 0 l 69 0 l 69 8 "},"2":{"ha":833,"x_min":0,"x_max":0,"o":"m 56 0 l 56 139 l 350 378 b 533 736 471 476 533 585 b 335 1025 533 908 464 1025 b 81 760 193 1025 78 908 b 201 850 97 810 140 850 b 331 731 275 850 331 800 b 194 603 331 654 264 603 b 69 763 125 603 69 656 b 417 1056 69 925 199 1056 b 756 792 633 1056 756 938 b 497 478 756 632 600 556 l 172 208 l 776 208 l 776 313 l 785 313 l 785 0 "},"3":{"ha":793,"x_min":0,"x_max":0,"o":"m 738 285 b 356 -14 738 97 565 -14 b 35 224 138 -14 35 110 b 156 353 35 301 86 353 b 267 236 218 353 267 307 b 149 125 267 171 210 125 b 56 175 103 125 72 146 b 325 3 72 93 164 3 b 514 285 476 3 514 133 b 275 558 514 408 475 558 l 275 567 b 472 821 461 567 472 725 b 339 1039 472 931 435 1039 b 111 908 239 1039 139 981 b 197 950 132 939 165 950 b 304 842 251 950 304 908 b 190 726 304 769 246 726 b 76 840 128 726 76 765 b 363 1054 76 961 221 1054 b 696 814 544 1054 696 967 b 361 563 696 688 625 581 b 738 285 643 544 738 431 "},"4":{"ha":889,"x_min":0,"x_max":0,"o":"m 826 0 l 375 0 l 375 8 l 507 8 l 507 294 l 49 294 l 563 1042 l 722 1042 l 722 303 l 875 303 l 875 294 l 722 294 l 722 8 l 826 8 m 507 303 l 507 947 l 64 303 "},"5":{"ha":743,"x_min":0,"x_max":0,"o":"m 43 133 b 271 -1 63 64 161 -1 b 472 308 422 -1 472 150 b 304 615 472 494 421 615 b 92 496 201 615 119 554 l 79 496 l 79 1042 l 644 1042 l 644 1118 l 653 1118 l 653 833 l 88 833 l 88 504 b 350 632 121 567 210 632 b 701 308 560 632 701 517 b 300 -14 701 121 531 -14 b 14 193 151 -14 14 65 b 135 321 14 271 68 321 b 256 206 197 321 256 282 b 129 83 256 136 196 83 b 43 133 89 83 60 107 "},"6":{"ha":847,"x_min":0,"x_max":0,"o":"m 806 347 b 443 -14 806 139 667 -14 b 69 431 219 -14 69 139 b 701 1056 69 768 336 1056 l 701 1049 b 300 521 467 1049 317 796 b 481 683 317 624 364 683 b 806 347 635 683 806 583 m 576 347 b 439 661 576 568 528 661 b 299 389 336 661 299 569 b 447 -6 299 168 338 -6 b 576 347 557 -6 576 154 "},"7":{"ha":750,"x_min":0,"x_max":0,"o":"m 206 126 b 433 518 206 236 340 368 b 603 826 481 599 538 706 l 64 826 l 64 722 l 56 722 l 56 1042 l 736 1042 b 450 525 736 1042 558 708 b 356 328 381 407 356 376 b 469 115 356 240 469 219 b 339 -14 469 43 421 -14 b 206 126 264 -14 206 29 "},"8":{"ha":833,"x_min":0,"x_max":0,"o":"m 56 264 b 340 535 56 413 147 514 b 83 778 172 556 83 644 b 417 1056 83 931 200 1056 b 750 778 633 1056 750 931 b 493 535 750 644 661 556 b 778 264 686 514 778 413 b 417 -14 778 97 661 -14 b 56 264 172 -14 56 97 m 306 778 b 417 544 306 626 335 544 b 528 778 499 544 528 626 b 417 1038 528 922 499 1038 b 306 778 335 1038 306 922 m 278 264 b 417 4 278 119 314 4 b 556 264 519 4 556 119 b 417 525 556 408 519 525 b 278 264 314 525 278 408 "},"9":{"ha":847,"x_min":0,"x_max":0,"o":"m 778 611 b 146 -14 778 274 511 -14 l 146 -7 b 547 521 381 -7 531 246 b 367 358 531 418 483 358 b 42 694 213 358 42 458 b 404 1056 42 903 181 1056 b 778 611 628 1056 778 903 m 271 694 b 408 381 271 474 319 381 b 549 653 511 381 549 472 b 400 1047 549 874 510 1047 b 271 694 290 1047 271 888 "}," ":{"ha":347,"x_min":0,"x_max":0,"o":""},"!":{"ha":528,"x_min":0,"x_max":0,"o":"m 386 888 b 267 358 371 685 267 532 l 258 358 b 139 888 258 532 154 685 l 139 914 b 263 1053 139 992 176 1053 b 388 914 349 1053 388 992 b 386 888 388 906 386 897 m 139 111 b 264 236 139 181 194 236 b 389 111 333 236 389 181 b 264 -14 389 42 333 -14 b 139 111 194 -14 139 42 "},"'":{"ha":361,"x_min":0,"x_max":0,"o":"m 290 918 b 185 629 275 814 185 782 l 176 629 b 71 918 176 782 86 814 b 69 943 69 928 69 935 b 181 1056 69 1011 119 1056 b 292 943 242 1056 292 1011 b 290 918 292 935 292 928 "},"\"":{"ha":667,"x_min":0,"x_max":0,"o":"m 596 918 b 490 629 581 814 490 782 l 482 629 b 376 918 482 782 392 814 b 375 943 375 928 375 935 b 486 1056 375 1011 425 1056 b 597 943 547 1056 597 1011 b 596 918 597 935 597 928 m 290 918 b 185 629 275 814 185 782 l 176 629 b 71 918 176 782 86 814 b 69 943 69 928 69 935 b 181 1056 69 1011 119 1056 b 292 943 242 1056 292 1011 b 290 918 292 935 292 928 "},"#":{"ha":875,"x_min":0,"x_max":0,"o":"m 272 351 l 319 711 l 83 711 l 83 719 l 321 719 l 364 1049 l 372 1049 l 329 719 l 585 719 l 628 1047 l 636 1049 l 593 719 l 833 719 l 833 711 l 592 711 l 544 351 l 792 351 l 792 343 l 543 343 l 497 -7 l 489 -8 l 535 343 l 279 343 l 233 -7 l 225 -7 l 271 343 l 42 343 l 42 351 m 536 351 l 583 711 l 328 711 l 281 351 "},"$":{"ha":826,"x_min":0,"x_max":0,"o":"m 711 875 b 453 1044 690 967 579 1036 l 453 664 b 771 306 603 600 771 525 b 453 -19 771 124 646 -3 l 453 -111 l 444 -111 l 444 -19 b 411 -21 433 -21 422 -21 b 344 -18 388 -21 365 -19 l 344 -111 l 335 -111 l 335 -17 b 39 215 131 7 39 122 b 160 350 39 293 85 350 b 269 231 215 350 269 306 b 153 126 269 161 207 126 b 53 186 107 126 68 153 b 335 -7 71 111 156 13 l 335 443 b 76 771 203 500 76 578 b 335 1047 76 915 197 1017 l 335 1153 l 344 1153 l 344 1049 b 418 1056 368 1053 393 1056 b 444 1054 426 1056 436 1056 l 444 1153 l 453 1153 l 453 1054 b 729 840 601 1043 729 957 b 611 713 729 763 686 713 b 501 822 556 713 501 750 b 611 929 501 889 557 929 b 711 875 654 929 692 908 m 431 1044 b 344 1031 400 1044 371 1040 l 344 715 b 444 668 375 699 410 683 l 444 1044 b 431 1044 440 1044 435 1044 m 222 874 b 335 719 222 801 269 757 l 335 1028 b 222 874 267 1001 222 946 m 403 -11 b 444 -8 418 -11 432 -10 l 444 396 b 344 438 413 410 378 424 l 344 -8 b 403 -11 363 -10 382 -11 m 625 196 b 453 392 625 299 549 349 l 453 -7 b 625 196 567 10 625 89 "},"%":{"ha":1417,"x_min":0,"x_max":0,"o":"m 49 750 b 354 1056 49 949 197 1056 b 660 750 511 1056 660 949 b 354 444 660 551 483 444 b 49 750 197 444 49 551 m 264 750 b 354 453 264 563 286 453 b 444 750 422 453 444 563 b 354 1047 444 938 422 1047 b 264 750 286 1047 264 938 m 1076 1042 l 350 0 l 340 0 l 1067 1042 m 757 292 b 1063 597 757 490 906 597 b 1368 292 1219 597 1368 490 b 1063 -14 1368 93 1192 -14 b 757 292 906 -14 757 93 m 972 292 b 1063 -6 972 104 994 -6 b 1153 292 1131 -6 1153 104 b 1063 589 1153 479 1131 589 b 972 292 994 589 972 479 "},"&":{"ha":1196,"x_min":0,"x_max":0,"o":"m 1144 639 l 1144 631 l 1003 631 b 847 221 988 488 935 339 l 986 8 l 1158 8 l 1158 0 l 750 0 l 699 76 b 394 -14 614 21 513 -14 b 56 250 175 -14 56 93 b 375 556 56 424 236 494 l 290 681 b 226 851 254 733 226 803 b 554 1056 226 976 358 1056 b 854 882 738 1056 854 988 b 568 649 854 744 719 719 l 842 229 b 994 631 924 339 979 483 l 811 631 l 811 639 m 563 658 b 647 882 614 696 647 744 b 550 1049 647 961 628 1049 b 446 910 475 1049 446 976 b 547 681 446 854 488 769 m 286 321 b 514 31 286 167 383 31 b 692 86 576 31 636 50 l 383 543 b 286 321 324 503 286 453 "},"(":{"ha":517,"x_min":0,"x_max":0,"o":"m 490 -236 b 90 451 264 -139 90 128 b 490 1111 90 775 264 1014 l 494 1106 b 306 451 357 1015 306 718 b 494 -231 306 185 357 -140 "},")":{"ha":517,"x_min":0,"x_max":0,"o":"m 26 1111 b 426 424 253 1014 426 747 b 26 -236 426 100 253 -139 l 22 -231 b 211 424 160 -140 211 157 b 22 1106 211 690 160 1015 "},"*":{"ha":882,"x_min":0,"x_max":0,"o":"m 331 385 b 436 667 346 488 433 519 b 244 435 310 590 326 499 b 224 421 236 428 231 425 b 71 461 165 386 101 407 b 113 613 40 514 54 579 b 135 624 119 617 125 621 b 432 674 231 663 303 603 b 136 724 304 744 232 685 b 114 735 126 726 121 731 b 72 888 56 768 42 833 b 225 926 103 940 167 961 b 246 913 232 922 238 919 b 438 681 328 849 311 757 b 332 963 433 828 347 860 b 331 988 331 972 331 979 b 442 1100 331 1056 381 1100 b 553 988 503 1100 553 1056 b 551 963 553 979 553 972 b 446 682 536 861 450 828 b 636 913 571 757 556 849 b 657 926 644 919 650 922 b 810 886 715 961 779 940 b 768 735 840 833 826 768 b 746 724 761 731 756 726 b 449 674 650 685 578 744 b 746 624 578 603 650 663 b 768 613 756 621 761 617 b 810 460 826 579 840 514 b 657 421 779 407 715 386 b 636 435 650 425 644 428 b 444 667 554 499 571 590 b 550 385 449 519 535 488 b 551 360 551 375 551 368 b 440 247 551 292 501 247 b 329 360 379 247 329 292 b 331 385 329 368 329 375 "},"+":{"ha":736,"x_min":0,"x_max":0,"o":"m 364 435 l 83 435 l 83 443 l 364 443 l 364 722 l 372 722 l 372 443 l 653 443 l 653 435 l 372 435 l 372 153 l 364 153 "},",":{"ha":382,"x_min":0,"x_max":0,"o":"m 56 110 b 190 233 56 176 117 233 b 329 47 265 233 329 169 b 53 -211 329 -92 219 -211 l 53 -203 b 314 108 213 -203 347 -83 b 181 -14 303 46 253 -14 b 56 110 103 -14 56 43 "},"-":{"ha":500,"x_min":0,"x_max":0,"o":"m 417 386 l 417 378 l 83 378 l 83 386 "},".":{"ha":361,"x_min":0,"x_max":0,"o":"m 56 111 b 181 236 56 181 111 236 b 306 111 250 236 306 181 b 181 -14 306 42 250 -14 b 56 111 111 -14 56 42 "},"/":{"ha":722,"x_min":0,"x_max":0,"o":"m 667 1083 l 64 -208 l 56 -208 l 658 1083 "},":":{"ha":360,"x_min":0,"x_max":0,"o":"m 56 625 b 181 750 56 694 111 750 b 306 625 250 750 306 694 b 181 500 306 556 250 500 b 56 625 111 500 56 556 m 56 111 b 181 236 56 181 111 236 b 306 111 250 236 306 181 b 181 -14 306 42 250 -14 b 56 111 111 -14 56 42 "},";":{"ha":385,"x_min":0,"x_max":0,"o":"m 57 625 b 182 750 57 694 113 750 b 307 625 251 750 307 694 b 182 500 307 556 251 500 b 57 625 113 500 57 556 m 57 110 b 192 233 57 176 118 233 b 331 47 267 233 331 169 b 54 -211 331 -92 221 -211 l 54 -203 b 315 108 214 -203 349 -83 b 182 -14 304 46 254 -14 b 57 110 104 -14 57 43 "},"<":{"ha":778,"x_min":0,"x_max":0,"o":"m 83 543 l 694 833 l 694 825 l 90 539 l 694 251 l 694 243 l 83 533 "},"=":{"ha":778,"x_min":0,"x_max":0,"o":"m 694 713 l 694 704 l 83 704 l 83 713 m 694 504 l 694 496 l 83 496 l 83 504 "},">":{"ha":778,"x_min":0,"x_max":0,"o":"m 694 533 l 83 243 l 83 251 l 688 539 l 83 825 l 83 833 l 694 543 "},"?":{"ha":813,"x_min":0,"x_max":0,"o":"m 346 497 b 519 778 474 535 519 649 b 364 1042 519 908 501 1042 b 103 853 225 1042 114 931 b 197 903 111 872 146 903 b 311 799 258 903 311 865 b 197 686 311 726 260 686 b 83 807 128 686 83 732 b 397 1056 83 928 214 1056 b 743 778 607 1056 743 944 b 354 492 743 618 585 504 l 354 339 l 346 339 l 346 497 m 249 111 b 374 236 249 181 304 236 b 499 111 443 236 499 181 b 374 -14 499 42 443 -14 b 249 111 304 -14 249 42 "},"@":{"ha":1403,"x_min":0,"x_max":0,"o":"m 808 496 b 807 444 808 479 808 461 l 871 722 l 1079 722 l 978 283 b 1011 119 968 240 926 119 b 1318 557 1175 119 1318 322 b 811 1089 1318 807 1158 1089 b 85 293 411 1089 85 724 b 582 -289 85 -137 333 -289 b 1083 -83 808 -289 965 -219 l 1090 -89 b 582 -297 974 -225 808 -297 b 76 293 328 -297 76 -143 b 813 1097 76 728 406 1097 b 1326 557 1164 1097 1326 811 b 939 94 1326 328 1197 94 b 768 274 785 94 756 192 b 549 97 724 168 647 97 b 339 319 431 97 339 175 b 661 735 339 528 492 735 b 808 496 786 735 808 610 m 800 481 b 725 683 800 539 797 683 b 563 322 650 683 563 494 b 633 150 563 229 583 150 b 800 481 713 150 800 308 "},"A":{"ha":1086,"x_min":0,"x_max":0,"o":"m 156 8 l 525 1063 l 600 1063 l 967 8 l 1067 8 l 1067 0 l 594 0 l 594 8 l 717 8 l 610 336 l 278 336 l 164 8 l 331 8 l 331 0 l 25 0 l 25 8 m 282 344 l 607 344 l 450 828 "},"B":{"ha":968,"x_min":0,"x_max":0,"o":"m 25 0 l 25 8 l 150 8 l 150 1033 l 25 1033 l 25 1042 l 497 1042 b 872 785 728 1042 872 965 b 585 536 872 633 772 553 b 914 278 772 524 914 454 b 525 0 914 76 769 0 m 364 1033 l 364 539 l 469 539 b 650 771 568 539 650 606 b 469 1033 650 936 568 1033 m 364 531 l 364 8 l 483 8 b 678 292 596 8 678 126 b 483 531 678 457 596 531 "},"C":{"ha":975,"x_min":0,"x_max":0,"o":"m 919 0 l 914 0 l 800 78 b 558 -14 739 21 658 -14 b 58 521 249 -14 58 211 b 558 1056 58 831 249 1056 b 776 969 646 1056 718 1024 l 900 1042 l 906 1042 l 906 736 l 897 736 b 572 1042 847 914 728 1042 b 303 521 365 1042 303 774 b 572 0 303 268 365 0 b 911 306 760 0 867 139 l 919 306 "},"D":{"ha":1051,"x_min":0,"x_max":0,"o":"m 25 0 l 25 8 l 150 8 l 150 1033 l 25 1033 l 25 1042 l 469 1042 b 997 521 800 1042 997 831 b 469 0 997 211 786 0 m 364 1033 l 364 8 l 469 8 b 753 521 683 8 753 247 b 469 1033 753 794 669 1033 "},"E":{"ha":871,"x_min":0,"x_max":0,"o":"m 592 365 b 414 535 571 458 493 535 l 364 535 l 364 8 l 511 8 b 822 313 701 8 801 136 l 831 313 l 831 0 l 25 0 l 25 8 l 150 8 l 150 1033 l 25 1033 l 25 1042 l 817 1042 l 817 757 l 808 757 b 525 1033 788 906 688 1033 l 364 1033 l 364 543 l 414 543 b 592 706 493 543 571 613 l 600 706 l 600 365 l 592 365 "},"F":{"ha":836,"x_min":0,"x_max":0,"o":"m 150 8 l 150 1033 l 25 1033 l 25 1042 l 794 1042 l 794 757 l 786 757 b 525 1033 765 906 681 1033 l 364 1033 l 364 522 l 400 522 b 592 685 507 522 571 592 l 600 685 l 600 344 l 592 344 b 400 514 571 438 507 514 l 364 514 l 364 8 l 503 8 l 503 0 l 25 0 l 25 8 "},"G":{"ha":1051,"x_min":0,"x_max":0,"o":"m 1039 400 l 1039 392 l 969 392 l 969 215 b 553 -14 879 121 779 -14 b 58 521 243 -14 58 197 b 572 1056 58 844 290 1056 b 792 975 653 1056 729 1025 l 928 1042 l 933 1042 l 933 736 l 925 736 b 592 1042 896 883 758 1042 b 303 521 385 1042 303 774 b 553 -4 303 268 353 -4 b 739 174 669 -4 718 115 l 739 392 l 594 392 l 594 400 "},"H":{"ha":1100,"x_min":0,"x_max":0,"o":"m 150 8 l 150 1033 l 25 1033 l 25 1042 l 489 1042 l 489 1033 l 364 1033 l 364 518 l 739 518 l 739 1033 l 614 1033 l 614 1042 l 1081 1042 l 1081 1033 l 956 1033 l 956 8 l 1081 8 l 1081 0 l 614 0 l 614 8 l 739 8 l 739 510 l 364 510 l 364 8 l 489 8 l 489 0 l 25 0 l 25 8 "},"I":{"ha":579,"x_min":0,"x_max":0,"o":"m 178 8 l 178 1033 l 25 1033 l 25 1042 l 558 1042 l 558 1033 l 392 1033 l 392 8 l 558 8 l 558 0 l 25 0 l 25 8 "},"J":{"ha":740,"x_min":0,"x_max":0,"o":"m 719 1042 l 719 1033 l 581 1033 l 581 236 b 247 -42 525 104 450 -42 b 17 146 106 -42 17 42 b 144 278 17 225 75 278 b 264 154 207 278 264 232 b 144 31 264 85 211 31 b 57 58 103 31 68 46 b 244 -33 85 13 151 -33 b 367 264 349 -33 367 69 l 367 1033 l 186 1033 l 186 1042 "},"K":{"ha":1065,"x_min":0,"x_max":0,"o":"m 150 8 l 150 1033 l 25 1033 l 25 1042 l 503 1042 l 503 1033 l 364 1033 l 364 493 l 826 1033 l 664 1033 l 664 1042 l 997 1042 l 997 1033 l 840 1033 l 544 688 l 944 8 l 1058 8 l 1058 0 l 558 0 l 558 8 l 696 8 l 403 524 l 364 476 l 364 8 l 489 8 l 489 0 l 25 0 l 25 8 "},"L":{"ha":854,"x_min":0,"x_max":0,"o":"m 25 0 l 25 8 l 150 8 l 150 1033 l 25 1033 l 25 1042 l 489 1042 l 489 1033 l 364 1033 l 364 8 l 507 8 b 818 313 711 8 797 136 l 826 313 l 826 0 "},"M":{"ha":1225,"x_min":0,"x_max":0,"o":"m 131 8 l 131 1033 l 25 1033 l 25 1042 l 350 1042 l 626 297 l 889 1042 l 1206 1042 l 1206 1033 l 1108 1033 l 1108 8 l 1206 8 l 1206 0 l 781 0 l 781 8 l 892 8 l 892 1026 l 528 -14 l 519 -14 l 139 1026 l 139 8 l 244 8 l 244 0 l 31 0 l 31 8 "},"N":{"ha":1040,"x_min":0,"x_max":0,"o":"m 164 8 l 164 1033 l 25 1033 l 25 1042 l 419 1042 l 867 354 l 867 1033 l 708 1033 l 708 1042 l 1019 1042 l 1019 1033 l 875 1033 l 875 -14 l 861 -14 l 172 1029 l 172 8 l 333 8 l 333 0 l 25 0 l 25 8 "},"O":{"ha":1058,"x_min":0,"x_max":0,"o":"m 531 -14 b 58 521 235 -14 58 218 b 531 1056 58 824 249 1056 b 1003 521 813 1056 1003 824 b 531 -14 1003 218 826 -14 m 531 1049 b 303 521 351 1049 303 808 b 531 -7 303 233 338 -7 b 761 521 724 -7 761 233 b 531 1049 761 808 710 1049 "},"P":{"ha":933,"x_min":0,"x_max":0,"o":"m 150 8 l 150 1033 l 25 1033 l 25 1042 l 503 1042 b 886 750 768 1042 886 931 b 503 468 886 569 768 468 l 364 468 l 364 8 l 489 8 l 489 0 l 25 0 l 25 8 m 364 1033 l 364 476 l 475 476 b 650 750 594 476 650 626 b 475 1033 650 874 594 1033 "},"Q":{"ha":1058,"x_min":0,"x_max":0,"o":"m 808 -347 b 406 1 467 -347 407 -271 b 58 521 186 57 58 264 b 531 1056 58 824 249 1056 b 1003 521 813 1056 1003 824 b 650 0 1003 261 874 54 b 808 -339 650 -250 660 -339 m 531 1049 b 303 521 351 1049 303 808 b 531 -7 303 233 338 -7 b 761 521 724 -7 761 233 b 531 1049 761 808 710 1049 "},"R":{"ha":1031,"x_min":0,"x_max":0,"o":"m 164 8 l 164 1033 l 25 1033 l 25 1042 l 511 1042 b 900 785 742 1042 900 965 b 589 535 900 624 786 550 b 939 7 1040 532 768 7 b 1014 25 968 7 994 17 l 1017 17 b 850 -11 994 4 932 -11 b 475 531 471 -11 817 531 l 378 531 l 378 8 l 517 8 l 517 0 l 25 0 l 25 8 m 378 1033 l 378 539 l 475 539 b 678 785 608 539 678 619 b 475 1033 678 950 608 1033 "},"S":{"ha":829,"x_min":0,"x_max":0,"o":"m 58 -14 l 58 313 l 68 313 b 419 -11 121 151 219 -11 b 633 196 553 -11 633 74 b 72 778 633 460 72 375 b 381 1056 72 951 219 1056 b 590 975 465 1056 535 1028 l 711 1056 l 719 1056 l 719 743 l 710 743 b 389 1044 654 932 546 1044 b 219 879 276 1044 219 975 b 775 299 219 643 775 700 b 428 -21 775 104 624 -21 b 192 74 325 -21 250 17 l 67 -14 "},"T":{"ha":940,"x_min":0,"x_max":0,"o":"m 364 8 l 364 1033 l 275 1033 b 33 708 126 1033 54 885 l 25 708 l 25 1042 l 919 1042 l 919 708 l 911 708 b 669 1033 890 885 818 1033 l 581 1033 l 581 8 l 733 8 l 733 0 l 211 0 l 211 8 "},"U":{"ha":1003,"x_min":0,"x_max":0,"o":"m 503 1042 l 503 1033 l 364 1033 l 364 333 b 578 -3 364 150 399 -3 b 839 319 738 -3 839 96 l 839 1033 l 711 1033 l 711 1042 l 983 1042 l 983 1033 l 847 1033 l 847 319 b 525 -21 847 90 751 -21 b 150 319 264 -21 150 79 l 150 1033 l 25 1033 l 25 1042 "},"V":{"ha":1072,"x_min":0,"x_max":0,"o":"m 925 1033 l 753 1033 l 753 1042 l 1058 1042 l 1058 1033 l 935 1033 l 558 -21 l 483 -21 l 117 1033 l 17 1033 l 17 1042 l 517 1042 l 517 1033 l 367 1033 l 633 214 "},"W":{"ha":1531,"x_min":0,"x_max":0,"o":"m 1056 1033 l 925 683 l 1083 239 l 1381 1033 l 1239 1033 l 1239 1042 l 1517 1042 l 1517 1033 l 1389 1033 l 1000 -14 l 956 -14 l 769 499 l 575 -14 l 511 -14 l 131 1033 l 17 1033 l 17 1042 l 1178 1042 l 1178 1033 m 764 513 l 575 1033 l 375 1033 l 660 239 m 919 694 l 1046 1033 l 799 1033 "},"X":{"ha":1100,"x_min":0,"x_max":0,"o":"m 169 8 l 476 472 l 154 1033 l 67 1033 l 67 1042 l 539 1042 l 539 1033 l 399 1033 l 622 647 l 868 1033 l 706 1033 l 706 1042 l 1011 1042 l 1011 1033 l 876 1033 l 628 638 l 993 8 l 1086 8 l 1086 0 l 614 0 l 614 8 l 743 8 l 482 464 l 181 8 l 350 8 l 350 0 l 17 0 l 17 8 "},"Y":{"ha":1024,"x_min":0,"x_max":0,"o":"m 419 8 l 419 500 l 110 1033 l 17 1033 l 17 1042 l 503 1042 l 503 1033 l 360 1033 l 631 542 l 879 1033 l 719 1033 l 719 1042 l 1011 1042 l 1011 1033 l 890 1033 l 636 532 l 636 8 l 775 8 l 775 0 l 294 0 l 294 8 "},"Z":{"ha":857,"x_min":0,"x_max":0,"o":"m 794 1042 l 794 1033 l 261 8 l 517 8 b 800 285 707 8 772 108 l 808 285 l 808 0 l 17 0 l 17 8 l 553 1033 l 336 1033 b 53 785 146 1033 81 933 l 44 785 l 44 1042 "},"[":{"ha":493,"x_min":0,"x_max":0,"o":"m 76 -208 l 76 1083 l 451 1083 l 451 1075 l 285 1075 l 285 -200 l 451 -200 l 451 -208 "},"\\":{"ha":722,"x_min":0,"x_max":0,"o":"m 667 -208 l 657 -208 l 56 1083 l 65 1083 "},"]":{"ha":493,"x_min":0,"x_max":0,"o":"m 208 -200 l 208 1075 l 42 1075 l 42 1083 l 417 1083 l 417 -208 l 42 -208 l 42 -200 "},"^":{"ha":757,"x_min":0,"x_max":0,"o":"m 144 871 l 139 875 l 333 1069 l 424 1069 l 618 875 l 613 871 l 378 1004 "},"_":{"ha":778,"x_min":0,"x_max":0,"o":"m 785 -204 l 785 -212 l -7 -212 l -7 -204 "},"`":{"ha":569,"x_min":0,"x_max":0,"o":"m 167 972 b 76 1049 119 967 76 1001 b 181 1122 76 1096 126 1142 l 489 1011 l 486 1003 l 167 972 "},"a":{"ha":801,"x_min":0,"x_max":0,"o":"m 454 353 l 454 424 b 322 639 454 531 426 639 b 161 586 249 639 186 610 b 322 504 249 619 322 569 b 206 404 322 442 261 404 b 99 501 143 404 99 444 b 360 650 99 590 219 650 b 649 424 589 650 649 550 l 649 67 b 700 15 649 36 667 15 b 794 90 722 15 767 35 l 801 88 b 617 -14 769 18 697 -14 b 454 108 531 -14 454 14 l 454 165 b 238 -14 433 49 364 -14 b 50 157 128 -14 50 54 b 354 353 50 274 151 353 m 339 44 b 454 251 394 44 454 94 l 454 344 l 403 344 b 261 175 318 344 261 267 b 339 44 261 93 289 44 "},"b":{"ha":861,"x_min":0,"x_max":0,"o":"m 22 1033 l 22 1042 l 308 1042 l 308 411 b 525 651 328 565 403 651 b 819 319 676 651 819 528 b 525 -14 819 111 676 -14 b 308 228 403 -14 328 74 l 308 0 l 22 0 l 22 8 l 114 8 l 114 1033 m 308 319 b 481 8 308 111 394 8 b 597 319 563 8 597 119 b 481 629 597 519 563 629 b 308 319 394 629 308 528 "},"c":{"ha":711,"x_min":0,"x_max":0,"o":"m 619 531 b 419 642 597 590 511 642 b 272 319 289 642 272 450 b 421 3 272 161 303 3 b 650 199 535 3 614 83 l 658 199 b 388 -14 622 78 542 -14 b 43 319 185 -14 43 97 b 396 653 43 514 165 653 b 658 464 544 653 658 571 b 547 353 658 393 610 353 b 433 461 492 353 433 381 b 539 567 433 531 492 567 b 619 531 581 567 606 550 "},"d":{"ha":861,"x_min":0,"x_max":0,"o":"m 840 0 l 554 0 l 554 219 b 338 -14 532 69 457 -14 b 43 319 186 -14 43 111 b 338 651 43 528 186 651 b 554 419 457 651 532 568 l 554 1033 l 463 1033 l 463 1042 l 749 1042 l 749 8 l 840 8 m 554 319 b 381 629 554 531 465 629 b 265 319 299 629 265 521 b 383 10 265 118 301 10 b 554 319 468 10 554 108 "},"e":{"ha":724,"x_min":0,"x_max":0,"o":"m 686 199 b 383 -14 650 78 551 -14 b 43 319 188 -14 43 104 b 381 653 43 535 185 653 b 685 358 588 653 685 510 l 258 358 b 258 333 258 350 258 342 b 419 0 258 154 289 0 b 678 199 550 0 643 85 l 686 199 m 381 644 b 258 367 292 644 263 513 l 478 367 b 381 644 478 486 469 644 "},"f":{"ha":536,"x_min":0,"x_max":0,"o":"m 135 8 l 135 631 l 15 631 l 15 639 l 135 639 l 135 711 b 471 1056 135 907 269 1056 b 663 897 590 1056 663 976 b 556 783 663 826 618 783 b 443 886 500 783 443 817 b 551 994 443 953 494 994 b 639 949 590 994 622 976 b 472 1047 625 988 576 1047 b 322 750 361 1047 322 926 l 322 639 l 511 639 l 511 631 l 322 631 l 322 8 l 483 8 l 483 0 l 15 0 l 15 8 "},"g":{"ha":853,"x_min":0,"x_max":0,"o":"m 67 92 b 278 229 67 178 174 218 b 57 438 164 246 57 308 b 340 653 57 590 207 653 b 564 578 421 653 508 631 b 706 646 603 629 658 646 b 839 531 797 646 839 583 b 750 429 839 454 792 429 b 664 517 708 429 664 457 b 750 599 664 563 700 599 b 822 556 786 599 815 578 b 706 638 814 597 778 638 b 569 572 658 638 607 619 b 624 438 603 539 624 494 b 340 225 624 285 474 225 b 306 226 329 225 317 225 b 189 160 250 219 189 199 b 331 117 189 118 254 117 b 450 118 379 117 411 118 b 682 -114 554 118 682 75 b 356 -361 682 -282 543 -361 b 22 -186 192 -361 22 -312 b 214 -40 22 -78 143 -46 b 67 92 131 -25 67 13 m 258 438 b 340 233 258 321 265 233 b 422 438 394 233 422 321 b 340 644 422 554 394 644 b 258 438 286 644 258 554 m 189 -153 b 369 -351 189 -261 250 -351 b 639 -172 497 -351 639 -300 b 453 -47 639 -86 543 -47 l 308 -47 b 238 -43 285 -47 260 -46 b 189 -153 194 -71 189 -124 "},"h":{"ha":844,"x_min":0,"x_max":0,"o":"m 114 8 l 114 1033 l 22 1033 l 22 1042 l 308 1042 l 308 408 b 535 653 324 529 374 653 b 732 443 690 653 732 564 l 732 8 l 825 8 l 825 0 l 467 0 l 467 8 l 538 8 l 538 439 b 467 610 538 556 525 610 b 308 310 339 610 308 439 l 308 8 l 381 8 l 381 0 l 22 0 l 22 8 "},"i":{"ha":425,"x_min":0,"x_max":0,"o":"m 86 938 b 204 1056 86 1004 138 1056 b 322 938 271 1056 322 1004 b 204 819 322 871 271 819 b 86 938 138 819 86 871 m 121 8 l 121 631 l 29 631 l 29 639 l 315 639 l 315 8 l 408 8 l 408 0 l 29 0 l 29 8 "},"j":{"ha":436,"x_min":0,"x_max":0,"o":"m 110 938 b 228 1056 110 1004 161 1056 b 346 938 294 1056 346 1004 b 228 819 346 871 294 819 b 110 938 161 819 110 871 m 336 -17 b 35 -361 336 -199 229 -361 b -178 -196 -92 -361 -178 -287 b -64 -82 -178 -126 -125 -82 b 49 -185 -8 -82 49 -115 b -71 -290 49 -251 1 -290 b -156 -226 -118 -290 -150 -260 b 18 -350 -151 -287 -79 -350 b 139 29 164 -350 139 -147 l 142 631 l 22 631 l 22 639 l 336 639 "},"k":{"ha":872,"x_min":0,"x_max":0,"o":"m 142 8 l 142 1033 l 22 1033 l 22 1042 l 336 1042 l 336 397 l 664 631 l 499 631 l 499 639 l 797 639 l 797 631 l 678 631 l 451 465 l 806 8 l 865 8 l 865 0 l 479 0 l 479 8 l 567 8 l 336 317 l 336 8 l 413 8 l 413 0 l 22 0 l 22 8 "},"l":{"ha":476,"x_min":0,"x_max":0,"o":"m 142 8 l 142 1033 l 22 1033 l 22 1042 l 336 1042 l 336 8 l 456 8 l 456 0 l 22 0 l 22 8 "},"m":{"ha":1213,"x_min":0,"x_max":0,"o":"m 114 8 l 114 631 l 22 631 l 22 639 l 308 639 l 308 415 b 518 653 322 533 369 653 b 704 443 657 653 704 564 l 704 428 b 913 653 719 542 768 653 b 1100 443 1051 653 1100 564 l 1100 8 l 1192 8 l 1192 0 l 839 0 l 839 8 l 906 8 l 906 439 b 842 611 906 556 894 611 b 704 310 736 611 704 446 l 704 8 l 772 8 l 772 0 l 442 0 l 442 8 l 510 8 l 510 439 b 447 611 510 556 500 611 b 308 310 342 611 308 446 l 308 8 l 376 8 l 376 0 l 22 0 l 22 8 "},"n":{"ha":844,"x_min":0,"x_max":0,"o":"m 114 8 l 114 631 l 22 631 l 22 639 l 308 639 l 308 407 b 535 653 324 528 374 653 b 732 443 689 653 732 564 l 732 8 l 825 8 l 825 0 l 467 0 l 467 8 l 538 8 l 538 439 b 467 610 538 556 525 610 b 308 310 342 610 308 439 l 308 8 l 381 8 l 381 0 l 22 0 l 22 8 "},"o":{"ha":763,"x_min":0,"x_max":0,"o":"m 43 319 b 382 653 43 500 172 653 b 721 319 592 653 721 500 b 382 -14 721 139 592 -14 b 43 319 172 -14 43 139 m 251 319 b 382 -6 251 154 279 -6 b 513 319 485 -6 513 154 b 382 644 513 485 485 644 b 251 319 279 644 251 485 "},"p":{"ha":861,"x_min":0,"x_max":0,"o":"m 114 -339 l 114 631 l 22 631 l 22 639 l 308 639 l 308 411 b 525 651 328 565 403 651 b 819 319 676 651 819 528 b 525 -14 819 111 676 -14 b 308 228 403 -14 328 74 l 308 -339 l 400 -339 l 400 -347 l 22 -347 l 22 -339 m 308 319 b 481 8 308 108 397 8 b 597 319 564 8 597 122 b 481 629 597 517 564 629 b 308 319 396 629 308 531 "},"q":{"ha":861,"x_min":0,"x_max":0,"o":"m 840 -347 l 463 -347 l 463 -339 l 554 -339 l 554 219 b 338 -14 532 69 457 -14 b 43 319 186 -14 43 111 b 338 651 43 528 186 651 b 554 419 457 651 532 568 l 554 639 l 840 639 l 840 631 l 749 631 l 749 -339 l 840 -339 m 554 319 b 381 629 554 531 465 629 b 265 319 299 629 265 517 b 381 10 265 122 299 10 b 554 319 469 10 554 108 "},"r":{"ha":651,"x_min":0,"x_max":0,"o":"m 114 8 l 114 631 l 22 631 l 22 639 l 308 639 l 308 436 b 489 653 321 556 364 653 b 644 506 567 653 644 594 b 529 386 644 442 603 386 b 413 497 463 386 413 428 b 617 558 413 604 556 647 b 488 644 599 614 540 644 b 308 310 326 644 308 463 l 308 8 l 400 8 l 400 0 l 22 0 l 22 8 "},"s":{"ha":613,"x_min":0,"x_max":0,"o":"m 53 -14 l 53 201 l 61 201 b 321 -6 99 78 196 -6 b 475 103 408 -6 475 32 b 67 451 475 254 67 179 b 282 651 67 561 150 651 b 440 593 347 651 400 628 l 522 653 l 529 653 l 529 458 l 521 458 b 283 643 492 544 413 643 b 156 551 210 643 156 607 b 578 204 156 406 578 465 b 326 -14 578 60 454 -14 b 143 53 253 -14 190 11 l 60 -14 "},"t":{"ha":497,"x_min":0,"x_max":0,"o":"m 494 142 b 271 -10 461 53 383 -10 b 110 161 136 -10 110 64 l 110 631 l 8 631 l 8 639 l 110 639 l 110 778 b 304 819 172 778 256 792 l 304 639 l 453 639 l 453 631 l 304 631 l 304 119 b 357 25 304 50 319 25 b 488 144 401 25 458 71 l 494 142 "},"u":{"ha":844,"x_min":0,"x_max":0,"o":"m 308 200 b 379 29 308 83 321 29 b 538 329 504 29 538 200 l 538 631 l 447 631 l 447 639 l 732 639 l 732 8 l 825 8 l 825 0 l 538 0 l 538 222 b 311 -14 521 104 468 -14 b 114 196 157 -14 114 75 l 114 631 l 22 631 l 22 639 l 308 639 "},"v":{"ha":785,"x_min":0,"x_max":0,"o":"m 658 631 l 525 631 l 525 639 l 783 639 l 783 631 l 669 631 l 408 -14 l 350 -14 l 85 631 l -3 631 l -3 639 l 406 639 l 406 631 l 300 631 l 469 167 "},"w":{"ha":1133,"x_min":0,"x_max":0,"o":"m 615 653 l 714 653 l 850 208 l 989 631 l 846 631 l 846 639 l 1133 639 l 1133 631 l 1000 631 l 785 -14 l 726 -14 l 550 467 l 353 -14 l 294 -14 l 85 631 l -3 631 l -3 639 l 411 639 l 411 631 l 292 631 l 422 179 "},"x":{"ha":788,"x_min":0,"x_max":0,"o":"m 110 8 l 325 264 l 94 631 l 18 631 l 18 639 l 411 639 l 411 631 l 317 631 l 454 415 l 635 631 l 519 631 l 519 639 l 760 639 l 760 631 l 649 631 l 460 407 l 714 8 l 778 8 l 778 0 l 396 0 l 396 8 l 485 8 l 331 256 l 121 8 l 264 8 l 264 0 l 11 0 l 11 8 "},"y":{"ha":814,"x_min":0,"x_max":0,"o":"m 418 -32 l 78 631 l -10 631 l -10 639 l 442 639 l 442 631 l 307 631 l 525 200 l 721 631 l 583 631 l 583 639 l 831 639 l 831 631 l 732 631 l 319 -267 b 201 -358 294 -319 261 -358 b 93 -254 146 -358 93 -321 b 204 -144 93 -194 139 -144 b 311 -267 265 -144 317 -197 "},"z":{"ha":654,"x_min":0,"x_max":0,"o":"m 281 631 b 63 400 150 631 83 540 l 54 400 l 54 639 l 611 639 l 611 631 l 235 8 l 375 8 b 625 256 538 8 604 83 l 633 256 l 633 0 l 15 0 l 15 8 l 390 631 l 281 631 "},"{":{"ha":461,"x_min":0,"x_max":0,"o":"m 419 -208 b 76 0 156 -208 76 -137 b 160 326 76 176 160 239 b 76 433 160 383 118 419 l 76 443 b 160 550 118 457 160 493 b 76 876 160 638 76 700 b 419 1083 76 1014 156 1083 l 419 1075 b 289 899 333 1075 289 986 b 336 619 289 807 336 744 b 90 438 336 507 267 465 b 336 257 267 411 336 369 b 289 -22 336 132 289 69 b 419 -200 289 -110 333 -200 l 419 -208 "},"|":{"ha":319,"x_min":0,"x_max":0,"o":"m 164 1083 l 164 -347 l 156 -347 l 156 1083 "},"}":{"ha":461,"x_min":0,"x_max":0,"o":"m 42 -200 b 172 -24 128 -200 172 -111 b 125 256 172 68 125 131 b 371 438 125 368 194 410 b 125 618 194 464 125 506 b 172 897 125 743 172 806 b 42 1075 172 985 128 1075 l 42 1083 b 385 875 306 1083 385 1013 b 301 549 385 699 301 636 b 385 442 301 492 343 456 l 385 432 b 301 325 343 418 301 382 b 385 -1 301 238 385 175 b 42 -208 385 -139 306 -208 "},"~":{"ha":956,"x_min":0,"x_max":0,"o":"m 283 586 b 147 476 210 586 147 556 l 139 476 b 346 729 139 636 222 729 b 658 599 499 729 519 599 b 808 708 746 599 808 629 l 817 708 b 610 456 817 549 733 456 b 283 586 433 456 432 586 "},"¡":{"ha":443,"x_min":0,"x_max":0,"o":"m 304 611 b 179 486 304 542 249 486 b 54 611 110 486 54 542 b 179 736 54 681 110 736 b 304 611 249 736 304 681 m 57 -165 b 176 364 72 38 176 190 l 185 364 b 304 -165 185 190 289 38 l 304 -192 b 181 -331 304 -269 267 -331 b 56 -192 94 -331 56 -269 b 57 -165 56 -183 57 -175 "},"¢":{"ha":711,"x_min":0,"x_max":0,"o":"m 619 531 b 419 642 597 590 511 642 b 397 640 411 642 404 642 l 397 6 b 421 3 404 4 413 3 b 650 199 535 3 614 83 l 658 199 b 397 -14 624 81 544 -10 l 397 -118 l 390 -118 l 390 -14 l 388 -14 b 43 319 185 -14 43 97 b 390 653 43 513 164 650 l 390 771 l 397 771 l 397 653 b 658 464 546 653 658 571 b 547 353 658 393 610 353 b 433 461 492 353 433 381 b 539 567 433 531 492 567 b 619 531 581 567 606 550 m 272 319 b 390 7 272 176 297 32 l 390 638 b 272 319 286 611 272 439 "},"£":{"ha":911,"x_min":0,"x_max":0,"o":"m 136 764 b 533 1056 136 958 289 1056 b 878 811 758 1056 878 925 b 761 679 878 733 828 679 b 633 799 699 679 633 722 b 754 917 633 868 693 917 b 853 861 810 917 842 881 b 564 1042 831 947 731 1042 b 374 813 419 1042 374 929 b 443 558 374 703 424 639 l 646 558 l 646 550 l 446 550 b 451 493 449 532 451 514 b 108 -12 451 240 103 236 b 378 218 136 88 249 218 b 656 171 503 218 564 171 b 869 301 754 171 869 188 l 878 301 b 621 -42 878 31 779 -42 b 260 42 431 -42 347 42 b 110 -28 203 42 124 14 l 100 -28 b 249 363 74 165 249 274 b 199 550 249 436 224 493 l 21 550 l 21 558 l 194 558 b 136 764 165 621 136 682 "},"¥":{"ha":1024,"x_min":0,"x_max":0,"o":"m 419 8 l 419 301 l 222 301 l 222 310 l 419 310 l 419 500 l 414 510 l 222 510 l 222 518 l 408 518 l 110 1033 l 17 1033 l 17 1042 l 503 1042 l 503 1033 l 360 1033 l 631 542 l 879 1033 l 719 1033 l 719 1042 l 1011 1042 l 1011 1033 l 890 1033 l 636 532 l 636 518 l 833 518 l 833 510 l 636 510 l 636 310 l 833 310 l 833 301 l 636 301 l 636 8 l 775 8 l 775 0 l 294 0 l 294 8 "},"¦":{"ha":306,"x_min":0,"x_max":0,"o":"m 157 1083 l 157 568 l 149 568 l 149 1083 m 157 231 l 157 -347 l 149 -347 l 149 231 "},"§":{"ha":661,"x_min":0,"x_max":0,"o":"m 606 225 b 318 -14 606 81 492 -14 b 42 182 196 -14 42 35 b 146 296 42 246 83 296 b 242 197 201 296 242 254 b 143 106 242 146 197 106 b 72 138 106 106 81 125 b 318 4 94 49 208 4 b 501 140 447 4 501 81 b 67 486 501 294 67 281 b 178 671 67 578 126 633 b 93 831 128 707 93 757 b 347 1056 93 975 215 1056 b 603 861 463 1056 603 1008 b 497 747 603 797 560 747 b 403 847 442 747 403 790 b 503 942 403 899 449 942 b 571 914 535 942 560 926 b 347 1038 546 994 451 1038 b 188 906 267 1038 188 979 b 608 539 188 751 608 751 b 507 389 608 461 561 424 b 606 225 564 353 606 303 m 172 592 b 489 400 172 490 361 472 b 510 453 501 414 510 429 b 194 658 510 557 318 578 b 172 592 182 642 172 619 "},"©":{"ha":1208,"x_min":0,"x_max":0,"o":"m 69 521 b 604 1056 69 817 308 1056 b 1139 521 900 1056 1139 817 b 604 -14 1139 225 900 -14 b 69 521 308 -14 69 225 m 78 521 b 604 -6 78 231 314 -6 b 1131 521 894 -6 1131 231 b 604 1047 1131 811 894 1047 b 78 521 314 1047 78 811 m 832 208 l 829 208 l 760 256 b 615 200 724 221 675 200 b 315 521 429 200 315 335 b 615 842 315 707 429 842 b 746 790 668 842 711 822 l 821 833 l 824 833 l 824 650 l 819 650 b 624 833 789 757 717 833 b 463 521 500 833 463 672 b 624 208 463 369 500 208 b 828 392 736 208 800 292 l 832 392 "},"ª":{"ha":490,"x_min":0,"x_max":0,"o":"m 475 722 b 364 661 456 681 413 661 b 267 735 313 661 267 678 l 267 769 b 138 661 254 699 213 661 b 25 764 71 661 25 701 b 207 881 25 833 85 881 l 267 881 l 267 924 b 188 1053 267 988 250 1053 b 92 1021 143 1053 106 1035 b 188 972 143 1042 188 1011 b 118 913 188 935 151 913 b 54 971 81 913 54 936 b 210 1060 54 1024 126 1060 b 383 924 347 1060 383 1000 l 383 710 b 414 679 383 692 394 679 b 471 724 428 679 454 690 l 475 722 m 197 696 b 267 821 231 696 267 726 l 267 876 l 236 876 b 151 775 185 876 151 829 b 197 696 151 725 168 696 "},"«":{"ha":1007,"x_min":0,"x_max":0,"o":"m 928 206 l 924 201 l 424 526 l 424 550 l 924 875 l 928 871 l 682 539 m 539 206 l 535 201 l 35 526 l 35 550 l 535 875 l 539 871 l 279 539 "},"¬":{"ha":675,"x_min":0,"x_max":0,"o":"m 83 846 l 83 854 l 592 854 l 592 574 l 583 574 l 583 846 "},"®":{"ha":1208,"x_min":0,"x_max":0,"o":"m 69 521 b 604 1056 69 817 308 1056 b 1139 521 900 1056 1139 817 b 604 -14 1139 225 900 -14 b 69 521 308 -14 69 225 m 78 521 b 604 -6 78 231 314 -6 b 1131 521 894 -6 1131 231 b 604 1047 1131 811 894 1047 b 78 521 314 1047 78 811 m 408 211 l 408 825 l 325 825 l 325 831 l 617 831 b 850 676 754 831 850 785 b 663 526 850 581 781 535 b 874 210 935 525 771 210 b 918 221 890 210 907 215 l 919 215 b 819 199 907 208 869 199 b 594 524 592 199 800 524 l 536 524 l 536 211 l 619 211 l 619 206 l 325 206 l 325 211 m 536 825 l 536 529 l 594 529 b 717 676 675 529 717 578 b 594 825 717 775 675 825 "},"¯":{"ha":558,"x_min":0,"x_max":0,"o":"m 475 664 l 475 656 l 83 656 l 83 664 "},"°":{"ha":444,"x_min":0,"x_max":0,"o":"m 56 944 b 222 1111 56 1036 131 1111 b 389 944 314 1111 389 1036 b 222 778 389 853 314 778 b 56 944 131 778 56 853 m 94 944 b 222 817 94 871 149 817 b 350 944 296 817 350 871 b 222 1072 350 1018 296 1072 b 94 944 149 1072 94 1018 "},"±":{"ha":736,"x_min":0,"x_max":0,"o":"m 364 490 l 83 490 l 83 499 l 364 499 l 364 778 l 372 778 l 372 499 l 653 499 l 653 490 l 372 490 l 372 208 l 364 208 m 653 18 l 653 10 l 83 10 l 83 18 "},"µ":{"ha":807,"x_min":0,"x_max":0,"o":"m 353 -171 b 436 -264 399 -171 436 -211 b 306 -361 436 -318 407 -361 b 125 -168 208 -361 125 -293 l 125 106 b 114 196 117 132 114 163 l 114 631 l 22 631 l 22 639 l 308 639 l 308 200 b 379 29 308 83 321 29 b 538 329 504 29 538 200 l 538 631 l 447 631 l 447 639 l 732 639 l 732 8 l 825 8 l 825 0 l 538 0 l 538 222 b 311 -14 521 104 468 -14 b 132 85 210 -14 157 25 l 132 -168 b 329 -351 132 -289 213 -362 b 271 -256 294 -336 271 -303 b 353 -171 271 -210 307 -171 "},"·":{"ha":360,"x_min":0,"x_max":0,"o":"m 56 597 b 181 722 56 667 111 722 b 306 597 250 722 306 667 b 181 472 306 528 250 472 b 56 597 111 472 56 528 "},"º":{"ha":763,"x_min":0,"x_max":0,"o":"m 185 860 b 388 1060 185 968 261 1060 b 590 860 514 1060 590 968 b 388 660 590 751 514 660 b 185 860 261 660 185 751 m 310 860 b 388 665 310 761 326 665 b 465 860 449 665 465 761 b 388 1054 465 958 449 1054 b 310 860 326 1054 310 958 "},"»":{"ha":1008,"x_min":0,"x_max":0,"o":"m 81 871 l 85 875 l 585 550 l 585 526 l 85 201 l 81 206 l 326 538 m 469 871 l 474 875 l 974 550 l 974 526 l 474 201 l 469 206 l 729 538 "},"¼":{"ha":932,"x_min":0,"x_max":0,"o":"m 139 500 l 139 1114 l 44 1114 l 44 1119 l 268 1119 l 268 500 l 360 500 l 360 494 l 31 494 l 31 500 m 731 903 l 64 -139 l 56 -139 l 722 903 m 871 -143 l 600 -143 l 600 -137 l 679 -137 l 679 33 l 404 33 l 713 482 l 808 482 l 808 39 l 900 39 l 900 33 l 808 33 l 808 -137 l 871 -137 m 679 39 l 679 425 l 414 39 "},"½":{"ha":972,"x_min":0,"x_max":0,"o":"m 139 500 l 139 1114 l 44 1114 l 44 1119 l 268 1119 l 268 500 l 360 500 l 360 494 l 31 494 l 31 500 m 731 903 l 64 -139 l 56 -139 l 722 903 m 507 -140 l 507 -57 l 683 86 b 793 301 756 146 793 211 b 675 475 793 404 751 475 b 522 315 589 475 521 404 b 594 369 532 346 558 369 b 672 299 639 369 672 340 b 590 221 672 253 632 221 b 515 317 549 221 515 253 b 724 493 515 415 593 493 b 926 335 854 493 926 422 b 772 146 926 239 833 193 l 576 -15 l 939 -15 l 939 47 l 944 47 l 944 -140 "},"¾":{"ha":1015,"x_min":0,"x_max":0,"o":"m 450 663 b 221 483 450 550 346 483 b 28 626 89 483 28 557 b 100 703 28 672 58 703 b 167 633 138 703 167 676 b 96 567 167 594 133 567 b 40 597 68 567 50 579 b 201 493 50 547 106 493 b 315 663 293 493 315 572 b 172 826 315 736 292 826 l 172 832 b 290 985 283 832 290 926 b 210 1115 290 1050 268 1115 b 74 1036 150 1115 90 1081 b 125 1061 86 1056 106 1061 b 189 997 158 1061 189 1036 b 121 928 189 953 154 928 b 53 996 83 928 53 951 b 225 1124 53 1068 139 1124 b 425 981 333 1124 425 1072 b 224 829 425 904 382 840 b 450 663 393 818 450 750 m 814 903 l 147 -139 l 139 -139 l 806 903 m 954 -143 l 683 -143 l 683 -137 l 763 -137 l 763 33 l 488 33 l 796 482 l 892 482 l 892 39 l 983 39 l 983 33 l 892 33 l 892 -137 l 954 -137 m 763 39 l 763 425 l 497 39 "},"¿":{"ha":814,"x_min":0,"x_max":0,"o":"m 560 611 b 435 486 560 542 504 486 b 310 611 365 486 310 542 b 435 736 310 681 365 736 b 560 611 504 736 560 681 m 463 225 b 289 -56 335 188 289 74 b 444 -319 289 -186 307 -319 b 706 -131 583 -319 694 -208 b 611 -181 697 -150 663 -181 b 497 -76 550 -181 497 -143 b 611 36 497 -4 549 36 b 725 -85 681 36 725 -10 b 411 -333 725 -206 594 -333 b 65 -56 201 -333 65 -222 b 454 231 65 104 224 218 l 454 383 l 463 383 l 463 225 "},"À":{"ha":1086,"x_min":0,"x_max":0,"o":"m 396 1153 b 306 1229 349 1147 306 1182 b 410 1303 306 1276 356 1322 l 718 1192 l 715 1183 l 396 1153 m 156 8 l 525 1063 l 600 1063 l 967 8 l 1067 8 l 1067 0 l 594 0 l 594 8 l 717 8 l 610 336 l 278 336 l 164 8 l 331 8 l 331 0 l 25 0 l 25 8 m 282 344 l 607 344 l 450 828 "},"Á":{"ha":1086,"x_min":0,"x_max":0,"o":"m 389 1183 l 386 1192 l 694 1303 b 799 1229 749 1322 799 1276 b 708 1153 799 1182 756 1147 m 156 8 l 525 1063 l 600 1063 l 967 8 l 1067 8 l 1067 0 l 594 0 l 594 8 l 717 8 l 610 336 l 278 336 l 164 8 l 331 8 l 331 0 l 25 0 l 25 8 m 282 344 l 607 344 l 450 828 "},"Â":{"ha":1086,"x_min":0,"x_max":0,"o":"m 331 1121 l 326 1125 l 493 1313 l 611 1313 l 778 1125 l 774 1121 l 551 1215 m 156 8 l 525 1063 l 600 1063 l 967 8 l 1067 8 l 1067 0 l 594 0 l 594 8 l 717 8 l 610 336 l 278 336 l 164 8 l 331 8 l 331 0 l 25 0 l 25 8 m 282 344 l 607 344 l 450 828 "},"Ã":{"ha":1086,"x_min":0,"x_max":0,"o":"m 413 1256 b 325 1174 363 1256 325 1225 l 317 1174 b 454 1378 317 1292 365 1378 b 704 1268 565 1378 614 1268 b 792 1350 760 1268 792 1299 l 800 1350 b 676 1146 800 1218 779 1146 b 413 1256 569 1146 513 1256 m 156 8 l 525 1063 l 600 1063 l 967 8 l 1067 8 l 1067 0 l 594 0 l 594 8 l 717 8 l 610 336 l 278 336 l 164 8 l 331 8 l 331 0 l 25 0 l 25 8 m 282 344 l 607 344 l 450 828 "},"Ä":{"ha":1086,"x_min":0,"x_max":0,"o":"m 601 1253 b 708 1358 601 1311 649 1358 b 814 1253 767 1358 814 1311 b 708 1146 814 1193 767 1146 b 601 1253 649 1146 601 1193 m 303 1253 b 410 1358 303 1311 350 1358 b 515 1253 468 1358 515 1311 b 410 1146 515 1193 468 1146 b 303 1253 350 1146 303 1193 m 156 8 l 525 1063 l 600 1063 l 967 8 l 1067 8 l 1067 0 l 594 0 l 594 8 l 717 8 l 610 336 l 278 336 l 164 8 l 331 8 l 331 0 l 25 0 l 25 8 m 282 344 l 607 344 l 450 828 "},"Å":{"ha":1086,"x_min":0,"x_max":0,"o":"m 419 1254 b 558 1379 419 1325 474 1379 b 697 1254 643 1379 697 1325 b 558 1129 697 1183 643 1129 b 419 1254 474 1129 419 1183 m 503 1254 b 558 1138 503 1183 515 1138 b 614 1254 601 1138 614 1183 b 558 1371 614 1325 601 1371 b 503 1254 515 1371 503 1325 m 156 8 l 525 1063 l 600 1063 l 967 8 l 1067 8 l 1067 0 l 594 0 l 594 8 l 717 8 l 610 336 l 278 336 l 164 8 l 331 8 l 331 0 l 25 0 l 25 8 m 282 344 l 607 344 l 450 828 "},"Æ":{"ha":1451,"x_min":0,"x_max":0,"o":"m 146 8 l 729 1042 l 1396 1042 l 1396 757 l 1388 757 b 1111 1033 1367 906 1267 1033 l 944 1033 l 944 543 l 993 543 b 1172 706 1072 543 1151 613 l 1181 706 l 1181 365 l 1172 365 b 993 535 1151 458 1072 535 l 944 535 l 944 8 l 1097 8 b 1401 313 1281 8 1381 136 l 1410 313 l 1410 0 l 604 0 l 604 8 l 729 8 l 729 336 l 343 336 l 158 8 l 326 8 l 326 0 l 21 0 l 21 8 m 729 344 l 729 1025 l 347 344 "},"Ç":{"ha":975,"x_min":0,"x_max":0,"o":"m 535 -256 b 407 -171 535 -182 476 -171 l 525 -12 b 58 521 235 3 58 222 b 558 1056 58 831 249 1056 b 776 969 646 1056 718 1024 l 900 1042 l 906 1042 l 906 736 l 897 736 b 572 1042 847 914 728 1042 b 303 521 365 1042 303 774 b 572 0 303 268 365 0 b 911 306 760 0 867 139 l 919 306 l 919 0 l 914 0 l 800 78 b 558 -14 739 21 658 -14 b 538 -14 551 -14 544 -14 l 461 -115 b 689 -228 593 -119 689 -150 b 413 -357 689 -297 622 -357 l 413 -349 b 535 -256 494 -349 535 -308 "},"È":{"ha":871,"x_min":0,"x_max":0,"o":"m 264 1147 b 174 1224 217 1142 174 1176 b 278 1297 174 1271 224 1317 l 586 1186 l 583 1178 l 264 1147 m 592 365 b 414 535 571 458 493 535 l 364 535 l 364 8 l 511 8 b 822 313 701 8 801 136 l 831 313 l 831 0 l 25 0 l 25 8 l 150 8 l 150 1033 l 25 1033 l 25 1042 l 817 1042 l 817 757 l 808 757 b 525 1033 788 906 688 1033 l 364 1033 l 364 543 l 414 543 b 592 706 493 543 571 613 l 600 706 l 600 365 l 592 365 "},"É":{"ha":871,"x_min":0,"x_max":0,"o":"m 286 1178 l 283 1186 l 592 1297 b 696 1224 646 1317 696 1271 b 606 1147 696 1176 653 1142 m 592 365 b 414 535 571 458 493 535 l 364 535 l 364 8 l 511 8 b 822 313 701 8 801 136 l 831 313 l 831 0 l 25 0 l 25 8 l 150 8 l 150 1033 l 25 1033 l 25 1042 l 817 1042 l 817 757 l 808 757 b 525 1033 788 906 688 1033 l 364 1033 l 364 543 l 414 543 b 592 706 493 543 571 613 l 600 706 l 600 365 l 592 365 "},"Ê":{"ha":871,"x_min":0,"x_max":0,"o":"m 201 1114 l 197 1118 l 364 1306 l 482 1306 l 649 1118 l 644 1114 l 422 1208 m 592 365 b 414 535 571 458 493 535 l 364 535 l 364 8 l 511 8 b 822 313 701 8 801 136 l 831 313 l 831 0 l 25 0 l 25 8 l 150 8 l 150 1033 l 25 1033 l 25 1042 l 817 1042 l 817 757 l 808 757 b 525 1033 788 906 688 1033 l 364 1033 l 364 543 l 414 543 b 592 706 493 543 571 613 l 600 706 l 600 365 l 592 365 "},"Ë":{"ha":871,"x_min":0,"x_max":0,"o":"m 490 1246 b 597 1351 490 1304 538 1351 b 703 1246 656 1351 703 1304 b 597 1139 703 1186 656 1139 b 490 1246 538 1139 490 1186 m 192 1246 b 299 1351 192 1304 239 1351 b 404 1246 357 1351 404 1304 b 299 1139 404 1186 357 1139 b 192 1246 239 1139 192 1186 m 592 365 b 414 535 571 458 493 535 l 364 535 l 364 8 l 511 8 b 822 313 701 8 801 136 l 831 313 l 831 0 l 25 0 l 25 8 l 150 8 l 150 1033 l 25 1033 l 25 1042 l 817 1042 l 817 757 l 808 757 b 525 1033 788 906 688 1033 l 364 1033 l 364 543 l 414 543 b 592 706 493 543 571 613 l 600 706 l 600 365 l 592 365 "},"Ì":{"ha":579,"x_min":0,"x_max":0,"o":"m 142 1147 b 51 1224 94 1142 51 1176 b 156 1297 51 1271 101 1317 l 464 1186 l 461 1178 l 142 1147 m 178 8 l 178 1033 l 25 1033 l 25 1042 l 558 1042 l 558 1033 l 392 1033 l 392 8 l 558 8 l 558 0 l 25 0 l 25 8 "},"Í":{"ha":579,"x_min":0,"x_max":0,"o":"m 136 1178 l 133 1186 l 442 1297 b 546 1224 496 1317 546 1271 b 456 1147 546 1176 503 1142 m 178 8 l 178 1033 l 25 1033 l 25 1042 l 558 1042 l 558 1033 l 392 1033 l 392 8 l 558 8 l 558 0 l 25 0 l 25 8 "},"Î":{"ha":579,"x_min":0,"x_max":0,"o":"m 76 1149 l 72 1153 l 239 1340 l 357 1340 l 524 1153 l 519 1149 l 297 1243 m 178 8 l 178 1033 l 25 1033 l 25 1042 l 558 1042 l 558 1033 l 392 1033 l 392 8 l 558 8 l 558 0 l 25 0 l 25 8 "},"Ï":{"ha":579,"x_min":0,"x_max":0,"o":"m 346 1271 b 453 1376 346 1329 393 1376 b 558 1271 511 1376 558 1329 b 453 1164 558 1211 511 1164 b 346 1271 393 1164 346 1211 m 47 1271 b 154 1376 47 1329 94 1376 b 260 1271 213 1376 260 1329 b 154 1164 260 1211 213 1164 b 47 1271 94 1164 47 1211 m 178 8 l 178 1033 l 25 1033 l 25 1042 l 558 1042 l 558 1033 l 392 1033 l 392 8 l 558 8 l 558 0 l 25 0 l 25 8 "},"Ð":{"ha":1051,"x_min":0,"x_max":0,"o":"m 138 518 l 138 1096 l -29 1096 l -29 1104 l 565 1104 b 1271 583 1007 1104 1271 893 b 565 63 1271 274 989 63 l -29 63 l -29 71 l 138 71 l 138 510 l 42 510 l 42 518 m 424 510 l 424 71 l 565 71 b 944 583 851 71 944 310 b 565 1096 944 857 833 1096 l 424 1096 l 424 518 l 488 518 l 488 510 "},"Ñ":{"ha":1040,"x_min":0,"x_max":0,"o":"m 368 1228 b 281 1146 318 1228 281 1197 l 272 1146 b 410 1350 272 1264 321 1350 b 660 1240 521 1350 569 1240 b 747 1322 715 1240 747 1271 l 756 1322 b 632 1118 756 1190 735 1118 b 368 1228 525 1118 468 1228 m 164 8 l 164 1033 l 25 1033 l 25 1042 l 419 1042 l 867 354 l 867 1033 l 708 1033 l 708 1042 l 1019 1042 l 1019 1033 l 875 1033 l 875 -14 l 861 -14 l 172 1029 l 172 8 l 333 8 l 333 0 l 25 0 l 25 8 "},"Ò":{"ha":1058,"x_min":0,"x_max":0,"o":"m 392 1167 b 301 1243 344 1161 301 1196 b 406 1317 301 1290 351 1336 l 714 1206 l 711 1197 l 392 1167 m 531 -14 b 58 521 235 -14 58 218 b 531 1056 58 824 249 1056 b 1003 521 813 1056 1003 824 b 531 -14 1003 218 826 -14 m 531 1049 b 303 521 351 1049 303 808 b 531 -7 303 233 338 -7 b 761 521 724 -7 761 233 b 531 1049 761 808 710 1049 "},"Ó":{"ha":1058,"x_min":0,"x_max":0,"o":"m 331 1197 l 328 1206 l 636 1317 b 740 1243 690 1336 740 1290 b 650 1167 740 1196 697 1161 m 531 -14 b 58 521 235 -14 58 218 b 531 1056 58 824 249 1056 b 1003 521 813 1056 1003 824 b 531 -14 1003 218 826 -14 m 531 1049 b 303 521 351 1049 303 808 b 531 -7 303 233 338 -7 b 761 521 724 -7 761 233 b 531 1049 761 808 710 1049 "},"Ô":{"ha":1058,"x_min":0,"x_max":0,"o":"m 317 1149 l 313 1153 l 479 1340 l 597 1340 l 764 1153 l 760 1149 l 538 1243 m 531 -14 b 58 521 235 -14 58 218 b 531 1056 58 824 249 1056 b 1003 521 813 1056 1003 824 b 531 -14 1003 218 826 -14 m 531 1049 b 303 521 351 1049 303 808 b 531 -7 303 233 338 -7 b 761 521 724 -7 761 233 b 531 1049 761 808 710 1049 "},"Õ":{"ha":1058,"x_min":0,"x_max":0,"o":"m 393 1228 b 306 1146 343 1228 306 1197 l 297 1146 b 435 1350 297 1264 346 1350 b 685 1240 546 1350 594 1240 b 772 1322 740 1240 772 1271 l 781 1322 b 657 1118 781 1190 760 1118 b 393 1228 550 1118 493 1228 m 531 -14 b 58 521 235 -14 58 218 b 531 1056 58 824 249 1056 b 1003 521 813 1056 1003 824 b 531 -14 1003 218 826 -14 m 531 1049 b 303 521 351 1049 303 808 b 531 -7 303 233 338 -7 b 761 521 724 -7 761 233 b 531 1049 761 808 710 1049 "},"Ö":{"ha":1058,"x_min":0,"x_max":0,"o":"m 599 1271 b 706 1376 599 1329 646 1376 b 811 1271 764 1376 811 1329 b 706 1164 811 1211 764 1164 b 599 1271 646 1164 599 1211 m 300 1271 b 407 1376 300 1329 347 1376 b 513 1271 465 1376 513 1329 b 407 1164 513 1211 465 1164 b 300 1271 347 1164 300 1211 m 531 -14 b 58 521 235 -14 58 218 b 531 1056 58 824 249 1056 b 1003 521 813 1056 1003 824 b 531 -14 1003 218 826 -14 m 531 1049 b 303 521 351 1049 303 808 b 531 -7 303 233 338 -7 b 761 521 724 -7 761 233 b 531 1049 761 808 710 1049 "},"×":{"ha":736,"x_min":0,"x_max":0,"o":"m 361 439 l 164 636 l 169 642 l 367 444 l 565 643 l 571 638 l 372 439 l 572 239 l 565 233 l 367 433 l 168 235 l 163 240 "},"Ø":{"ha":1058,"x_min":0,"x_max":0,"o":"m 531 -14 b 304 42 444 -14 368 6 l 219 -139 l 211 -139 l 297 44 b 58 521 144 132 58 310 b 531 1056 58 824 249 1056 b 744 1004 610 1056 682 1038 l 814 1153 l 822 1153 l 751 1000 b 1003 521 907 914 1003 736 b 531 -14 1003 218 826 -14 m 531 1049 b 303 521 351 1049 303 808 b 344 147 303 376 311 243 l 704 917 b 531 1049 668 999 613 1049 m 761 521 b 707 907 761 672 747 810 l 349 138 b 531 -7 382 49 438 -7 b 761 521 724 -7 761 233 "},"Ù":{"ha":1003,"x_min":0,"x_max":0,"o":"m 372 1153 b 282 1229 325 1147 282 1182 b 386 1303 282 1276 332 1322 l 694 1192 l 692 1183 l 372 1153 m 503 1042 l 503 1033 l 364 1033 l 364 333 b 578 -3 364 150 399 -3 b 839 319 738 -3 839 96 l 839 1033 l 711 1033 l 711 1042 l 983 1042 l 983 1033 l 847 1033 l 847 319 b 525 -21 847 90 751 -21 b 150 319 264 -21 150 79 l 150 1033 l 25 1033 l 25 1042 "},"Ú":{"ha":1003,"x_min":0,"x_max":0,"o":"m 308 1183 l 306 1192 l 614 1303 b 718 1229 668 1322 718 1276 b 628 1153 718 1182 675 1147 m 503 1042 l 503 1033 l 364 1033 l 364 333 b 578 -3 364 150 399 -3 b 839 319 738 -3 839 96 l 839 1033 l 711 1033 l 711 1042 l 983 1042 l 983 1033 l 847 1033 l 847 319 b 525 -21 847 90 751 -21 b 150 319 264 -21 150 79 l 150 1033 l 25 1033 l 25 1042 "},"Û":{"ha":1003,"x_min":0,"x_max":0,"o":"m 310 1149 l 306 1153 l 472 1340 l 590 1340 l 757 1153 l 753 1149 l 531 1243 m 503 1042 l 503 1033 l 364 1033 l 364 333 b 578 -3 364 150 399 -3 b 839 319 738 -3 839 96 l 839 1033 l 711 1033 l 711 1042 l 983 1042 l 983 1033 l 847 1033 l 847 319 b 525 -21 847 90 751 -21 b 150 319 264 -21 150 79 l 150 1033 l 25 1033 l 25 1042 "},"Ü":{"ha":1003,"x_min":0,"x_max":0,"o":"m 576 1271 b 683 1376 576 1329 624 1376 b 789 1271 742 1376 789 1329 b 683 1164 789 1211 742 1164 b 576 1271 624 1164 576 1211 m 278 1271 b 385 1376 278 1329 325 1376 b 490 1271 443 1376 490 1329 b 385 1164 490 1211 443 1164 b 278 1271 325 1164 278 1211 m 503 1042 l 503 1033 l 364 1033 l 364 333 b 578 -3 364 150 399 -3 b 839 319 738 -3 839 96 l 839 1033 l 711 1033 l 711 1042 l 983 1042 l 983 1033 l 847 1033 l 847 319 b 525 -21 847 90 751 -21 b 150 319 264 -21 150 79 l 150 1033 l 25 1033 l 25 1042 "},"Ý":{"ha":1024,"x_min":0,"x_max":0,"o":"m 361 1183 l 358 1192 l 667 1303 b 771 1229 721 1322 771 1276 b 681 1153 771 1182 728 1147 m 419 8 l 419 500 l 110 1033 l 17 1033 l 17 1042 l 503 1042 l 503 1033 l 360 1033 l 631 542 l 879 1033 l 719 1033 l 719 1042 l 1011 1042 l 1011 1033 l 890 1033 l 636 532 l 636 8 l 775 8 l 775 0 l 294 0 l 294 8 "},"Þ":{"ha":931,"x_min":0,"x_max":0,"o":"m 146 8 l 146 1033 l 21 1033 l 21 1042 l 486 1042 l 486 1033 l 361 1033 l 361 833 l 514 833 b 882 542 765 833 882 722 b 514 250 882 361 765 250 l 361 250 l 361 8 l 486 8 l 486 0 l 21 0 l 21 8 m 361 825 l 361 258 l 465 258 b 646 542 599 258 646 418 b 465 825 646 665 599 825 "},"ß":{"ha":1071,"x_min":0,"x_max":0,"o":"m 146 8 l 146 682 b 581 1056 146 936 354 1056 b 974 807 779 1056 974 957 b 638 563 974 669 864 579 b 1015 243 914 542 1015 408 b 689 -14 1015 76 857 -14 b 469 217 563 -14 469 75 b 590 335 469 294 528 335 b 700 229 646 335 700 300 b 586 125 700 164 640 125 b 481 197 539 125 492 156 b 668 -3 486 76 576 -3 b 792 222 771 -3 792 133 b 560 558 792 353 767 558 l 560 567 b 750 793 711 567 750 704 b 574 1047 750 893 711 1047 b 354 668 401 1047 354 865 l 354 8 l 479 8 l 479 0 l 21 0 l 21 8 "},"à":{"ha":801,"x_min":0,"x_max":0,"o":"m 207 750 b 117 826 160 744 117 779 b 221 900 117 874 167 919 l 529 789 l 526 781 l 207 750 m 454 353 l 454 424 b 322 639 454 531 426 639 b 161 586 249 639 186 610 b 322 504 249 619 322 569 b 206 404 322 442 261 404 b 99 501 143 404 99 444 b 360 650 99 590 219 650 b 649 424 589 650 649 550 l 649 67 b 700 15 649 36 667 15 b 794 90 722 15 767 35 l 801 88 b 617 -14 769 18 697 -14 b 454 108 531 -14 454 14 l 454 165 b 238 -14 433 49 364 -14 b 50 157 128 -14 50 54 b 354 353 50 274 151 353 m 339 44 b 454 251 394 44 454 94 l 454 344 l 403 344 b 261 175 318 344 261 267 b 339 44 261 93 289 44 "},"á":{"ha":801,"x_min":0,"x_max":0,"o":"m 158 781 l 156 789 l 464 900 b 568 826 518 919 568 874 b 478 750 568 779 525 744 m 454 353 l 454 424 b 322 639 454 531 426 639 b 161 586 249 639 186 610 b 322 504 249 619 322 569 b 206 404 322 442 261 404 b 99 501 143 404 99 444 b 360 650 99 590 219 650 b 649 424 589 650 649 550 l 649 67 b 700 15 649 36 667 15 b 794 90 722 15 767 35 l 801 88 b 617 -14 769 18 697 -14 b 454 108 531 -14 454 14 l 454 165 b 238 -14 433 49 364 -14 b 50 157 128 -14 50 54 b 354 353 50 274 151 353 m 339 44 b 454 251 394 44 454 94 l 454 344 l 403 344 b 261 175 318 344 261 267 b 339 44 261 93 289 44 "},"â":{"ha":801,"x_min":0,"x_max":0,"o":"m 167 746 l 163 750 l 329 938 l 447 938 l 614 750 l 610 746 l 388 840 m 454 353 l 454 424 b 322 639 454 531 426 639 b 161 586 249 639 186 610 b 322 504 249 619 322 569 b 206 404 322 442 261 404 b 99 501 143 404 99 444 b 360 650 99 590 219 650 b 649 424 589 650 649 550 l 649 67 b 700 15 649 36 667 15 b 794 90 722 15 767 35 l 801 88 b 617 -14 769 18 697 -14 b 454 108 531 -14 454 14 l 454 165 b 238 -14 433 49 364 -14 b 50 157 128 -14 50 54 b 354 353 50 274 151 353 m 339 44 b 454 251 394 44 454 94 l 454 344 l 403 344 b 261 175 318 344 261 267 b 339 44 261 93 289 44 "},"ã":{"ha":801,"x_min":0,"x_max":0,"o":"m 249 846 b 161 764 199 846 161 815 l 153 764 b 290 968 153 882 201 968 b 540 858 401 968 450 858 b 628 940 596 858 628 889 l 636 940 b 513 736 636 808 615 736 b 249 846 406 736 349 846 m 454 353 l 454 424 b 322 639 454 531 426 639 b 161 586 249 639 186 610 b 322 504 249 619 322 569 b 206 404 322 442 261 404 b 99 501 143 404 99 444 b 360 650 99 590 219 650 b 649 424 589 650 649 550 l 649 67 b 700 15 649 36 667 15 b 794 90 722 15 767 35 l 801 88 b 617 -14 769 18 697 -14 b 454 108 531 -14 454 14 l 454 165 b 238 -14 433 49 364 -14 b 50 157 128 -14 50 54 b 354 353 50 274 151 353 m 339 44 b 454 251 394 44 454 94 l 454 344 l 403 344 b 261 175 318 344 261 267 b 339 44 261 93 289 44 "},"ä":{"ha":801,"x_min":0,"x_max":0,"o":"m 438 843 b 544 949 438 901 485 949 b 650 843 603 949 650 901 b 544 736 650 783 603 736 b 438 843 485 736 438 783 m 139 843 b 246 949 139 901 186 949 b 351 843 304 949 351 901 b 246 736 351 783 304 736 b 139 843 186 736 139 783 m 454 353 l 454 424 b 322 639 454 531 426 639 b 161 586 249 639 186 610 b 322 504 249 619 322 569 b 206 404 322 442 261 404 b 99 501 143 404 99 444 b 360 650 99 590 219 650 b 649 424 589 650 649 550 l 649 67 b 700 15 649 36 667 15 b 794 90 722 15 767 35 l 801 88 b 617 -14 769 18 697 -14 b 454 108 531 -14 454 14 l 454 165 b 238 -14 433 49 364 -14 b 50 157 128 -14 50 54 b 354 353 50 274 151 353 m 339 44 b 454 251 394 44 454 94 l 454 344 l 403 344 b 261 175 318 344 261 267 b 339 44 261 93 289 44 "},"å":{"ha":801,"x_min":0,"x_max":0,"o":"m 256 861 b 394 986 256 932 310 986 b 533 861 479 986 533 932 b 394 736 533 790 479 736 b 256 861 310 736 256 790 m 339 861 b 394 744 339 790 351 744 b 450 861 438 744 450 790 b 394 978 450 932 438 978 b 339 861 351 978 339 932 m 454 353 l 454 424 b 322 639 454 531 426 639 b 161 586 249 639 186 610 b 322 504 249 619 322 569 b 206 404 322 442 261 404 b 99 501 143 404 99 444 b 360 650 99 590 219 650 b 649 424 589 650 649 550 l 649 67 b 700 15 649 36 667 15 b 794 90 722 15 767 35 l 801 88 b 617 -14 769 18 697 -14 b 454 108 531 -14 454 14 l 454 165 b 238 -14 433 49 364 -14 b 50 157 128 -14 50 54 b 354 353 50 274 151 353 m 339 44 b 454 251 394 44 454 94 l 454 344 l 403 344 b 261 175 318 344 261 267 b 339 44 261 93 289 44 "},"æ":{"ha":1157,"x_min":0,"x_max":0,"o":"m 97 501 b 358 650 97 590 218 650 b 583 543 475 650 547 608 b 817 653 636 615 718 653 b 1121 353 1024 653 1121 504 l 694 353 b 694 333 694 347 694 340 b 854 0 694 175 722 0 b 1114 199 986 0 1079 85 l 1122 199 b 819 -14 1086 78 988 -14 b 571 117 711 -14 622 32 b 306 -14 519 32 418 -14 b 49 157 154 -14 49 40 b 353 358 49 274 156 358 l 453 358 l 453 424 b 322 639 453 517 433 639 b 153 581 256 639 183 611 b 321 504 242 619 321 569 b 204 404 321 442 260 404 b 97 501 142 404 97 444 m 914 361 b 817 644 913 486 906 644 b 694 361 726 644 697 510 l 914 361 m 347 -3 b 453 217 406 -3 453 90 l 453 350 l 401 350 b 260 167 317 350 260 267 b 347 -3 260 74 292 -3 "},"ç":{"ha":711,"x_min":0,"x_max":0,"o":"m 382 -251 b 254 -167 382 -178 324 -167 l 369 -14 b 43 319 176 -7 43 104 b 396 653 43 514 165 653 b 658 464 544 653 658 571 b 547 353 658 393 610 353 b 433 461 492 353 433 381 b 539 567 433 531 492 567 b 619 531 581 567 606 550 b 419 642 597 590 511 642 b 272 319 289 642 272 450 b 421 3 272 161 303 3 b 650 199 535 3 614 83 l 658 199 b 388 -14 622 78 542 -14 l 382 -14 l 308 -111 b 536 -224 440 -115 536 -146 b 260 -353 536 -293 469 -353 l 260 -344 b 382 -251 342 -344 382 -304 "},"è":{"ha":724,"x_min":0,"x_max":0,"o":"m 279 764 b 189 840 232 758 189 793 b 293 914 189 888 239 933 l 601 803 l 599 794 l 279 764 m 686 199 b 383 -14 650 78 551 -14 b 43 319 188 -14 43 104 b 381 653 43 535 185 653 b 685 358 588 653 685 510 l 258 358 b 258 333 258 350 258 342 b 419 0 258 154 289 0 b 678 199 550 0 643 85 l 686 199 m 381 644 b 258 367 292 644 263 513 l 478 367 b 381 644 478 486 469 644 "},"é":{"ha":724,"x_min":0,"x_max":0,"o":"m 175 794 l 172 803 l 481 914 b 585 840 535 933 585 888 b 494 764 585 793 542 758 m 686 199 b 383 -14 650 78 551 -14 b 43 319 188 -14 43 104 b 381 653 43 535 185 653 b 685 358 588 653 685 510 l 258 358 b 258 333 258 350 258 342 b 419 0 258 154 289 0 b 678 199 550 0 643 85 l 686 199 m 381 644 b 258 367 292 644 263 513 l 478 367 b 381 644 478 486 469 644 "},"ê":{"ha":724,"x_min":0,"x_max":0,"o":"m 176 711 l 172 715 l 339 903 l 457 903 l 624 715 l 619 711 l 397 806 m 686 199 b 383 -14 650 78 551 -14 b 43 319 188 -14 43 104 b 381 653 43 535 185 653 b 685 358 588 653 685 510 l 258 358 b 258 333 258 350 258 342 b 419 0 258 154 289 0 b 678 199 550 0 643 85 l 686 199 m 381 644 b 258 367 292 644 263 513 l 478 367 b 381 644 478 486 469 644 "},"ë":{"ha":724,"x_min":0,"x_max":0,"o":"m 436 843 b 543 949 436 901 483 949 b 649 843 601 949 649 901 b 543 736 649 783 601 736 b 436 843 483 736 436 783 m 138 843 b 244 949 138 901 185 949 b 350 843 303 949 350 901 b 244 736 350 783 303 736 b 138 843 185 736 138 783 m 686 199 b 383 -14 650 78 551 -14 b 43 319 188 -14 43 104 b 381 653 43 535 185 653 b 685 358 588 653 685 510 l 258 358 b 258 333 258 350 258 342 b 419 0 258 154 289 0 b 678 199 550 0 643 85 l 686 199 m 381 644 b 258 367 292 644 263 513 l 478 367 b 381 644 478 486 469 644 "},"ì":{"ha":444,"x_min":0,"x_max":0,"o":"m 35 750 b -56 826 -12 744 -56 779 b 49 900 -56 874 -6 919 l 357 789 l 354 781 l 35 750 m 125 8 l 125 631 l 28 631 l 28 639 l 319 639 l 319 8 l 417 8 l 417 0 l 28 0 l 28 8 "},"í":{"ha":444,"x_min":0,"x_max":0,"o":"m 0 781 l -3 789 l 306 900 b 410 826 360 919 410 874 b 319 750 410 779 367 744 m 125 8 l 125 631 l 28 631 l 28 639 l 319 639 l 319 8 l 417 8 l 417 0 l 28 0 l 28 8 "},"î":{"ha":444,"x_min":0,"x_max":0,"o":"m -33 746 l -37 750 l 129 938 l 247 938 l 414 750 l 410 746 l 188 840 m 125 8 l 125 631 l 28 631 l 28 639 l 319 639 l 319 8 l 417 8 l 417 0 l 28 0 l 28 8 "},"ï":{"ha":444,"x_min":0,"x_max":0,"o":"m 243 864 b 350 969 243 922 290 969 b 456 864 408 969 456 922 b 350 757 456 804 408 757 b 243 864 290 757 243 804 m -56 864 b 51 969 -56 922 -8 969 b 157 864 110 969 157 922 b 51 757 157 804 110 757 b -56 864 -8 757 -56 804 m 125 8 l 125 631 l 28 631 l 28 639 l 319 639 l 319 8 l 417 8 l 417 0 l 28 0 l 28 8 "},"ð":{"ha":847,"x_min":0,"x_max":0,"o":"m 778 431 b 404 -14 778 139 628 -14 b 42 347 181 -14 42 139 b 367 683 42 583 213 683 b 550 493 485 683 533 607 b 432 867 543 619 503 758 l 181 867 l 181 875 l 426 875 b 146 1050 358 978 263 1050 l 146 1056 b 596 875 325 1056 482 988 l 799 875 l 799 867 l 604 867 b 778 431 713 754 778 601 m 271 347 b 400 -6 271 154 290 -6 b 549 389 510 -6 549 168 b 406 664 549 571 497 664 b 271 347 317 664 271 568 "},"ñ":{"ha":844,"x_min":0,"x_max":0,"o":"m 289 846 b 201 764 239 846 201 815 l 193 764 b 331 968 193 882 242 968 b 581 858 442 968 490 858 b 668 940 636 858 668 889 l 676 940 b 553 736 676 808 656 736 b 289 846 446 736 389 846 m 114 8 l 114 631 l 22 631 l 22 639 l 308 639 l 308 407 b 535 653 324 528 374 653 b 732 443 689 653 732 564 l 732 8 l 825 8 l 825 0 l 467 0 l 467 8 l 538 8 l 538 439 b 467 610 538 556 525 610 b 308 310 342 610 308 439 l 308 8 l 381 8 l 381 0 l 22 0 l 22 8 "},"ò":{"ha":763,"x_min":0,"x_max":0,"o":"m 275 758 b 185 835 228 753 185 788 b 289 908 185 882 235 928 l 597 797 l 594 789 l 275 758 m 43 319 b 382 653 43 500 172 653 b 721 319 592 653 721 500 b 382 -14 721 139 592 -14 b 43 319 172 -14 43 139 m 251 319 b 382 -6 251 154 279 -6 b 513 319 485 -6 513 154 b 382 644 513 485 485 644 b 251 319 279 644 251 485 "},"ó":{"ha":763,"x_min":0,"x_max":0,"o":"m 197 789 l 194 797 l 503 908 b 607 835 557 928 607 882 b 517 758 607 788 564 753 m 43 319 b 382 653 43 500 172 653 b 721 319 592 653 721 500 b 382 -14 721 139 592 -14 b 43 319 172 -14 43 139 m 251 319 b 382 -6 251 154 279 -6 b 513 319 485 -6 513 154 b 382 644 513 485 485 644 b 251 319 279 644 251 485 "},"ô":{"ha":763,"x_min":0,"x_max":0,"o":"m 167 746 l 163 750 l 329 938 l 447 938 l 614 750 l 610 746 l 388 840 m 43 319 b 382 653 43 500 172 653 b 721 319 592 653 721 500 b 382 -14 721 139 592 -14 b 43 319 172 -14 43 139 m 251 319 b 382 -6 251 154 279 -6 b 513 319 485 -6 513 154 b 382 644 513 485 485 644 b 251 319 279 644 251 485 "},"õ":{"ha":763,"x_min":0,"x_max":0,"o":"m 243 846 b 156 764 193 846 156 815 l 147 764 b 285 968 147 882 196 968 b 535 858 396 968 444 858 b 622 940 590 858 622 889 l 631 940 b 507 736 631 808 610 736 b 243 846 400 736 343 846 m 43 319 b 382 653 43 500 172 653 b 721 319 592 653 721 500 b 382 -14 721 139 592 -14 b 43 319 172 -14 43 139 m 251 319 b 382 -6 251 154 279 -6 b 513 319 485 -6 513 154 b 382 644 513 485 485 644 b 251 319 279 644 251 485 "},"ö":{"ha":763,"x_min":0,"x_max":0,"o":"m 438 843 b 544 949 438 901 485 949 b 650 843 603 949 650 901 b 544 736 650 783 603 736 b 438 843 485 736 438 783 m 139 843 b 246 949 139 901 186 949 b 351 843 304 949 351 901 b 246 736 351 783 304 736 b 139 843 186 736 139 783 m 43 319 b 382 653 43 500 172 653 b 721 319 592 653 721 500 b 382 -14 721 139 592 -14 b 43 319 172 -14 43 139 m 251 319 b 382 -6 251 154 279 -6 b 513 319 485 -6 513 154 b 382 644 513 485 485 644 b 251 319 279 644 251 485 "},"÷":{"ha":847,"x_min":0,"x_max":0,"o":"m 299 806 b 424 931 299 875 354 931 b 549 806 493 931 549 875 b 424 681 549 736 493 681 b 299 806 354 681 299 736 m 785 553 l 785 544 l 63 544 l 63 553 m 299 271 b 424 396 299 340 354 396 b 549 271 493 396 549 340 b 424 146 549 201 493 146 b 299 271 354 146 299 201 "},"ø":{"ha":763,"x_min":0,"x_max":0,"o":"m 43 319 b 382 653 43 500 172 653 b 554 611 447 653 506 638 l 672 804 l 681 804 l 560 608 b 721 319 663 550 721 442 b 382 -14 721 139 592 -14 b 203 31 313 -14 253 3 l 78 -171 l 69 -171 l 197 35 b 43 319 99 94 43 201 m 251 319 b 265 146 251 258 256 197 l 494 515 b 382 644 475 592 442 644 b 251 319 279 644 251 485 m 513 319 b 496 506 513 386 508 451 l 267 136 b 382 -6 285 53 319 -6 b 513 319 485 -6 513 154 "},"ù":{"ha":844,"x_min":0,"x_max":0,"o":"m 300 764 b 210 840 253 758 210 793 b 314 914 210 888 260 933 l 622 803 l 619 794 l 300 764 m 308 200 b 379 29 308 83 321 29 b 538 329 504 29 538 200 l 538 631 l 447 631 l 447 639 l 732 639 l 732 8 l 825 8 l 825 0 l 538 0 l 538 222 b 311 -14 521 104 468 -14 b 114 196 157 -14 114 75 l 114 631 l 22 631 l 22 639 l 308 639 "},"ú":{"ha":844,"x_min":0,"x_max":0,"o":"m 210 789 l 207 797 l 515 908 b 619 835 569 928 619 882 b 529 758 619 788 576 753 m 308 200 b 379 29 308 83 321 29 b 538 329 504 29 538 200 l 538 631 l 447 631 l 447 639 l 732 639 l 732 8 l 825 8 l 825 0 l 538 0 l 538 222 b 311 -14 521 104 468 -14 b 114 196 157 -14 114 75 l 114 631 l 22 631 l 22 639 l 308 639 "},"û":{"ha":844,"x_min":0,"x_max":0,"o":"m 165 746 l 161 750 l 328 938 l 446 938 l 613 750 l 608 746 l 386 840 m 308 200 b 379 29 308 83 321 29 b 538 329 504 29 538 200 l 538 631 l 447 631 l 447 639 l 732 639 l 732 8 l 825 8 l 825 0 l 538 0 l 538 222 b 311 -14 521 104 468 -14 b 114 196 157 -14 114 75 l 114 631 l 22 631 l 22 639 l 308 639 "},"ü":{"ha":844,"x_min":0,"x_max":0,"o":"m 496 868 b 603 974 496 926 543 974 b 708 868 661 974 708 926 b 603 761 708 808 661 761 b 496 868 543 761 496 808 m 197 868 b 304 974 197 926 244 974 b 410 868 363 974 410 926 b 304 761 410 808 363 761 b 197 868 244 761 197 808 m 308 200 b 379 29 308 83 321 29 b 538 329 504 29 538 200 l 538 631 l 447 631 l 447 639 l 732 639 l 732 8 l 825 8 l 825 0 l 538 0 l 538 222 b 311 -14 521 104 468 -14 b 114 196 157 -14 114 75 l 114 631 l 22 631 l 22 639 l 308 639 "},"ý":{"ha":814,"x_min":0,"x_max":0,"o":"m 247 794 l 244 803 l 553 914 b 657 840 607 933 657 888 b 567 764 657 793 614 758 m 418 -32 l 78 631 l -10 631 l -10 639 l 442 639 l 442 631 l 307 631 l 525 200 l 721 631 l 583 631 l 583 639 l 831 639 l 831 631 l 732 631 l 319 -267 b 201 -358 294 -319 261 -358 b 93 -254 146 -358 93 -321 b 204 -144 93 -194 139 -144 b 311 -267 265 -144 317 -197 "},"þ":{"ha":865,"x_min":0,"x_max":0,"o":"m 118 -339 l 118 1033 l 21 1033 l 21 1042 l 313 1042 l 313 419 b 529 651 335 568 410 651 b 824 319 681 651 824 528 b 529 -14 824 111 681 -14 b 313 218 410 -14 335 69 l 313 -339 l 410 -339 l 410 -347 l 21 -347 l 21 -339 m 313 319 b 485 8 313 108 401 8 b 601 319 568 8 601 122 b 486 629 601 517 569 629 b 313 319 401 629 313 531 "},"ÿ":{"ha":814,"x_min":0,"x_max":0,"o":"m 507 910 b 614 1015 507 968 554 1015 b 719 910 672 1015 719 968 b 614 803 719 850 672 803 b 507 910 554 803 507 850 m 208 910 b 315 1015 208 968 256 1015 b 421 910 374 1015 421 968 b 315 803 421 850 374 803 b 208 910 256 803 208 850 m 418 -32 l 78 631 l -10 631 l -10 639 l 442 639 l 442 631 l 307 631 l 525 200 l 721 631 l 583 631 l 583 639 l 831 639 l 831 631 l 732 631 l 319 -267 b 201 -358 294 -319 261 -358 b 93 -254 146 -358 93 -321 b 204 -144 93 -194 139 -144 b 311 -267 265 -144 317 -197 "},"ı":{"ha":444,"x_min":0,"x_max":0,"o":"m 125 8 l 125 631 l 28 631 l 28 639 l 319 639 l 319 8 l 417 8 l 417 0 l 28 0 l 28 8 "},"‘":{"ha":382,"x_min":0,"x_max":0,"o":"m 326 757 b 192 633 326 690 265 633 b 53 819 117 633 53 697 b 329 1078 53 958 163 1078 l 329 1069 b 68 758 169 1069 35 950 b 201 881 79 821 129 881 b 326 757 279 881 326 824 "},"’":{"ha":382,"x_min":0,"x_max":0,"o":"m 56 946 b 190 1069 56 1013 117 1069 b 329 883 265 1069 329 1006 b 53 625 329 744 219 625 l 53 633 b 314 944 213 633 347 753 b 181 822 303 882 253 822 b 56 946 103 822 56 879 "},"Ł":{"ha":854,"x_min":0,"x_max":0,"o":"m 150 572 l 150 1033 l 25 1033 l 25 1042 l 489 1042 l 489 1033 l 364 1033 l 364 692 l 569 806 l 569 796 l 364 682 l 364 8 l 507 8 b 818 313 711 8 797 136 l 826 313 l 826 0 l 25 0 l 25 8 l 150 8 l 150 563 l 21 490 l 21 500 "},"ˆ":{"ha":590,"x_min":0,"x_max":0,"o":"m 74 878 l 69 882 l 236 1069 l 354 1069 l 521 882 l 517 878 l 294 972 "},"Ĕ":{"ha":871,"x_min":0,"x_max":0,"o":"m 269 1360 b 428 1271 269 1296 353 1271 b 586 1360 503 1271 586 1296 l 594 1360 b 428 1139 594 1226 546 1139 b 261 1360 310 1139 261 1226 l 269 1360 m 592 365 b 414 535 571 458 493 535 l 364 535 l 364 8 l 511 8 b 822 313 701 8 801 136 l 831 313 l 831 0 l 25 0 l 25 8 l 150 8 l 150 1033 l 25 1033 l 25 1042 l 817 1042 l 817 757 l 808 757 b 525 1033 788 906 688 1033 l 364 1033 l 364 543 l 414 543 b 592 706 493 543 571 613 l 600 706 l 600 365 l 592 365 "},"˙":{"ha":325,"x_min":0,"x_max":0,"o":"m 63 964 b 169 1071 63 1024 110 1071 b 275 964 228 1071 275 1024 b 169 858 275 906 228 858 b 63 964 110 858 63 906 "},"‱":{"ha":2785,"x_min":0,"x_max":0,"o":"m 49 750 b 354 1056 49 949 197 1056 b 660 750 511 1056 660 949 b 354 444 660 551 483 444 b 49 750 197 444 49 551 m 264 750 b 354 453 264 563 286 453 b 444 750 422 453 444 563 b 354 1047 444 938 422 1047 b 264 750 286 1047 264 938 m 1076 1042 l 350 0 l 340 0 l 1067 1042 m 2125 292 b 2431 597 2125 490 2274 597 b 2736 292 2588 597 2736 490 b 2431 -14 2736 93 2560 -14 b 2125 292 2274 -14 2125 93 m 1438 292 b 1743 597 1438 490 1586 597 b 2049 292 1900 597 2049 490 b 1743 -14 2049 93 1872 -14 b 1438 292 1586 -14 1438 93 m 757 292 b 1063 597 757 490 906 597 b 1368 292 1219 597 1368 490 b 1063 -14 1368 93 1192 -14 b 757 292 906 -14 757 93 m 2340 292 b 2431 -6 2340 104 2363 -6 b 2521 292 2499 -6 2521 104 b 2431 589 2521 479 2499 589 b 2340 292 2363 589 2340 479 m 1653 292 b 1743 -6 1653 104 1675 -6 b 1833 292 1811 -6 1833 104 b 1743 589 1833 479 1811 589 b 1653 292 1675 589 1653 479 m 972 292 b 1063 -6 972 104 994 -6 b 1153 292 1131 -6 1153 104 b 1063 589 1153 479 1131 589 b 972 292 994 589 972 479 "},"Ŏ":{"ha":1058,"x_min":0,"x_max":0,"o":"m 381 1360 b 539 1271 381 1296 464 1271 b 697 1360 614 1271 697 1296 l 706 1360 b 539 1139 706 1226 657 1139 b 372 1360 421 1139 372 1226 l 381 1360 m 531 -14 b 58 521 235 -14 58 218 b 531 1056 58 824 249 1056 b 1003 521 813 1056 1003 824 b 531 -14 1003 218 826 -14 m 531 1049 b 303 521 351 1049 303 808 b 531 -7 303 233 338 -7 b 761 521 724 -7 761 233 b 531 1049 761 808 710 1049 "},"Ė":{"ha":871,"x_min":0,"x_max":0,"o":"m 326 1244 b 433 1351 326 1304 374 1351 b 539 1244 492 1351 539 1304 b 433 1139 539 1186 492 1139 b 326 1244 374 1139 326 1186 m 592 365 b 414 535 571 458 493 535 l 364 535 l 364 8 l 511 8 b 822 313 701 8 801 136 l 831 313 l 831 0 l 25 0 l 25 8 l 150 8 l 150 1033 l 25 1033 l 25 1042 l 817 1042 l 817 757 l 808 757 b 525 1033 788 906 688 1033 l 364 1033 l 364 543 l 414 543 b 592 706 493 543 571 613 l 600 706 l 600 365 l 592 365 "},"ě":{"ha":724,"x_min":0,"x_max":0,"o":"m 608 928 l 613 924 l 446 736 l 328 736 l 161 924 l 167 928 l 386 833 m 686 199 b 383 -14 650 78 551 -14 b 43 319 188 -14 43 104 b 381 653 43 535 185 653 b 685 358 588 653 685 510 l 258 358 b 258 333 258 350 258 342 b 419 0 258 154 289 0 b 678 199 550 0 643 85 l 686 199 m 381 644 b 258 367 292 644 263 513 l 478 367 b 381 644 478 486 469 644 "},"Ń":{"ha":1040,"x_min":0,"x_max":0,"o":"m 403 1156 l 400 1164 l 708 1275 b 813 1201 763 1294 813 1249 b 722 1125 813 1154 769 1119 m 164 8 l 164 1033 l 25 1033 l 25 1042 l 419 1042 l 867 354 l 867 1033 l 708 1033 l 708 1042 l 1019 1042 l 1019 1033 l 875 1033 l 875 -14 l 861 -14 l 172 1029 l 172 8 l 333 8 l 333 0 l 25 0 l 25 8 "},"ĥ":{"ha":844,"x_min":0,"x_max":0,"o":"m 110 1135 l 106 1139 l 272 1326 l 390 1326 l 557 1139 l 553 1135 l 331 1229 m 114 8 l 114 1033 l 22 1033 l 22 1042 l 308 1042 l 308 408 b 535 653 324 529 374 653 b 732 443 690 653 732 564 l 732 8 l 825 8 l 825 0 l 467 0 l 467 8 l 538 8 l 538 439 b 467 610 538 556 525 610 b 308 310 339 610 308 439 l 308 8 l 381 8 l 381 0 l 22 0 l 22 8 "},"Ȓ":{"ha":1031,"x_min":0,"x_max":0,"o":"m 344 1139 b 511 1360 344 1272 393 1360 b 678 1139 629 1360 678 1272 l 669 1139 b 511 1228 669 1203 586 1228 b 353 1139 436 1228 353 1203 m 164 8 l 164 1033 l 25 1033 l 25 1042 l 511 1042 b 900 785 742 1042 900 965 b 589 535 900 624 786 550 b 939 7 1040 532 768 7 b 1014 25 968 7 994 17 l 1017 17 b 850 -11 994 4 932 -11 b 475 531 471 -11 817 531 l 378 531 l 378 8 l 517 8 l 517 0 l 25 0 l 25 8 m 378 1033 l 378 539 l 475 539 b 678 785 608 539 678 619 b 475 1033 678 950 608 1033 "},"Ţ":{"ha":940,"x_min":0,"x_max":0,"o":"m 364 8 l 364 1033 l 275 1033 b 33 708 126 1033 54 885 l 25 708 l 25 1042 l 919 1042 l 919 708 l 911 708 b 669 1033 890 885 818 1033 l 581 1033 l 581 8 l 733 8 l 733 0 l 471 0 l 411 -79 b 639 -192 543 -83 639 -114 b 363 -321 639 -261 572 -321 l 363 -312 b 485 -219 444 -312 485 -272 b 357 -135 485 -146 426 -135 l 458 0 l 211 0 l 211 8 "},"Ĥ":{"ha":1100,"x_min":0,"x_max":0,"o":"m 338 1149 l 333 1153 l 500 1340 l 618 1340 l 785 1153 l 781 1149 l 558 1243 m 150 8 l 150 1033 l 25 1033 l 25 1042 l 489 1042 l 489 1033 l 364 1033 l 364 518 l 739 518 l 739 1033 l 614 1033 l 614 1042 l 1081 1042 l 1081 1033 l 956 1033 l 956 8 l 1081 8 l 1081 0 l 614 0 l 614 8 l 739 8 l 739 510 l 364 510 l 364 8 l 489 8 l 489 0 l 25 0 l 25 8 "},"ğ":{"ha":853,"x_min":0,"x_max":0,"o":"m 244 957 b 403 868 244 893 328 868 b 561 957 478 868 561 893 l 569 957 b 403 736 569 824 521 736 b 236 957 285 736 236 824 l 244 957 m 67 92 b 278 229 67 178 174 218 b 57 438 164 246 57 308 b 340 653 57 590 207 653 b 564 578 421 653 508 631 b 706 646 603 629 658 646 b 839 531 797 646 839 583 b 750 429 839 454 792 429 b 664 517 708 429 664 457 b 750 599 664 563 700 599 b 822 556 786 599 815 578 b 706 638 814 597 778 638 b 569 572 658 638 607 619 b 624 438 603 539 624 494 b 340 225 624 285 474 225 b 306 226 329 225 317 225 b 189 160 250 219 189 199 b 331 117 189 118 254 117 b 450 118 379 117 411 118 b 682 -114 554 118 682 75 b 356 -361 682 -282 543 -361 b 22 -186 192 -361 22 -312 b 214 -40 22 -78 143 -46 b 67 92 131 -25 67 13 m 258 438 b 340 233 258 321 265 233 b 422 438 394 233 422 321 b 340 644 422 554 394 644 b 258 438 286 644 258 554 m 189 -153 b 369 -351 189 -261 250 -351 b 639 -172 497 -351 639 -300 b 453 -47 639 -86 543 -47 l 308 -47 b 238 -43 285 -47 260 -46 b 189 -153 194 -71 189 -124 "},"ż":{"ha":654,"x_min":0,"x_max":0,"o":"m 239 842 b 346 949 239 901 286 949 b 451 842 404 949 451 901 b 346 736 451 783 404 736 b 239 842 286 736 239 783 m 281 631 b 63 400 150 631 83 540 l 54 400 l 54 639 l 611 639 l 611 631 l 235 8 l 375 8 b 625 256 538 8 604 83 l 633 256 l 633 0 l 15 0 l 15 8 l 390 631 l 281 631 "},"":{"ha":889,"x_min":0,"x_max":0,"o":"m 117 785 b 438 1106 117 963 260 1106 b 758 785 615 1106 758 963 b 438 464 758 607 615 464 b 117 785 260 464 117 607 m 122 785 b 438 469 122 611 264 469 b 753 785 611 469 753 611 b 438 1100 753 958 611 1100 b 122 785 264 1100 122 958 m 319 599 l 319 968 l 269 968 l 269 971 l 444 971 b 585 878 528 971 585 943 b 472 788 585 821 543 793 b 599 599 636 788 538 599 b 626 604 610 599 619 601 l 626 601 b 567 592 619 597 596 592 b 432 786 431 592 554 786 l 397 786 l 397 599 l 447 599 l 447 596 l 269 596 l 269 599 m 397 968 l 397 789 l 432 789 b 504 878 479 789 504 818 b 432 968 504 938 479 968 "},"Ĳ":{"ha":1300,"x_min":0,"x_max":0,"o":"m 178 8 l 178 1033 l 25 1033 l 25 1042 l 558 1042 l 558 1033 l 392 1033 l 392 8 l 558 8 l 558 0 l 25 0 l 25 8 m 1282 1042 l 1282 1033 l 1143 1033 l 1143 236 b 810 -42 1088 104 1013 -42 b 579 146 668 -42 579 42 b 707 278 579 225 638 278 b 826 154 769 278 826 232 b 707 31 826 85 774 31 b 619 58 665 31 631 46 b 807 -33 647 13 714 -33 b 929 264 911 -33 929 69 l 929 1033 l 749 1033 l 749 1042 "},"Ĝ":{"ha":1051,"x_min":0,"x_max":0,"o":"m 358 1149 l 354 1153 l 521 1340 l 639 1340 l 806 1153 l 801 1149 l 579 1243 m 1039 400 l 1039 392 l 969 392 l 969 215 b 553 -14 879 121 779 -14 b 58 521 243 -14 58 197 b 572 1056 58 844 290 1056 b 792 975 653 1056 729 1025 l 928 1042 l 933 1042 l 933 736 l 925 736 b 592 1042 896 883 758 1042 b 303 521 385 1042 303 774 b 553 -4 303 268 353 -4 b 739 174 669 -4 718 115 l 739 392 l 594 392 l 594 400 "},"ŉ":{"ha":1042,"x_min":0,"x_max":0,"o":"m 14 971 b 149 1094 14 1038 75 1094 b 288 908 224 1094 288 1031 b 11 650 288 769 178 650 l 11 658 b 272 969 171 658 306 778 b 139 847 261 907 211 847 b 14 971 61 847 14 904 m 301 8 l 301 631 l 210 631 l 210 639 l 496 639 l 496 407 b 722 653 511 528 561 653 b 919 443 876 653 919 564 l 919 8 l 1013 8 l 1013 0 l 654 0 l 654 8 l 725 8 l 725 439 b 654 610 725 556 713 610 b 496 310 529 610 496 439 l 496 8 l 568 8 l 568 0 l 210 0 l 210 8 "},"ş":{"ha":613,"x_min":0,"x_max":0,"o":"m 53 -14 l 53 201 l 61 201 b 321 -6 99 78 196 -6 b 475 103 408 -6 475 32 b 67 451 475 254 67 179 b 282 651 67 561 150 651 b 440 593 347 651 400 628 l 522 653 l 529 653 l 529 458 l 521 458 b 283 643 492 544 413 643 b 156 551 210 643 156 607 b 578 204 156 406 578 465 b 326 -14 578 60 454 -14 b 311 -14 321 -14 315 -14 l 233 -117 b 461 -229 365 -121 461 -151 b 185 -358 461 -299 394 -358 l 185 -350 b 307 -257 267 -350 307 -310 b 179 -172 307 -183 249 -172 l 299 -12 b 143 53 238 -7 185 17 l 60 -14 "},"ﬁ":{"ha":871,"x_min":0,"x_max":0,"o":"m 142 8 l 142 631 l 17 631 l 17 639 l 142 639 l 142 711 b 528 1056 142 914 285 1056 b 753 890 675 1056 753 976 b 647 776 753 819 710 776 b 533 879 592 776 533 813 b 644 986 533 946 586 986 b 733 925 689 986 722 961 b 528 1047 721 993 649 1047 b 331 750 376 1047 331 926 l 331 639 l 750 639 l 750 8 l 847 8 l 847 0 l 17 0 l 17 8 m 331 631 l 331 8 l 556 8 l 556 631 "},"Ş":{"ha":829,"x_min":0,"x_max":0,"o":"m 58 -14 l 58 313 l 68 313 b 419 -11 121 151 219 -11 b 633 196 553 -11 633 74 b 72 778 633 460 72 375 b 381 1056 72 951 219 1056 b 590 975 465 1056 535 1028 l 711 1056 l 719 1056 l 719 743 l 710 743 b 389 1044 654 932 546 1044 b 219 879 276 1044 219 975 b 775 299 219 643 775 700 b 428 -21 775 104 624 -21 b 400 -19 418 -21 410 -21 l 322 -124 b 550 -236 454 -128 550 -158 b 274 -365 550 -306 483 -365 l 274 -357 b 396 -264 356 -357 396 -317 b 268 -179 396 -190 338 -179 l 389 -19 b 192 74 306 -11 242 24 l 67 -14 "},"Ų":{"ha":1003,"x_min":0,"x_max":0,"o":"m 688 -237 b 515 -339 667 -276 635 -339 b 343 -219 424 -339 343 -303 b 543 -21 343 -122 447 -56 b 525 -21 538 -21 531 -21 b 150 319 264 -21 150 79 l 150 1033 l 25 1033 l 25 1042 l 503 1042 l 503 1033 l 364 1033 l 364 333 b 578 -3 364 150 399 -3 b 839 319 738 -3 839 96 l 839 1033 l 711 1033 l 711 1042 l 983 1042 l 983 1033 l 847 1033 l 847 319 b 581 -18 847 110 767 -1 b 529 -182 554 -40 529 -100 b 599 -304 529 -260 558 -304 b 682 -235 638 -304 660 -274 l 688 -237 "},"ō":{"ha":763,"x_min":0,"x_max":0,"o":"m 582 750 l 582 742 l 190 742 l 190 750 m 43 319 b 382 653 43 500 172 653 b 721 319 592 653 721 500 b 382 -14 721 139 592 -14 b 43 319 172 -14 43 139 m 251 319 b 382 -6 251 154 279 -6 b 513 319 485 -6 513 154 b 382 644 513 485 485 644 b 251 319 279 644 251 485 "},"Ÿ":{"ha":1024,"x_min":0,"x_max":0,"o":"m 604 1246 b 711 1351 604 1304 651 1351 b 817 1246 769 1351 817 1304 b 711 1139 817 1186 769 1139 b 604 1246 651 1139 604 1186 m 306 1246 b 413 1351 306 1304 353 1351 b 518 1246 471 1351 518 1304 b 413 1139 518 1186 471 1139 b 306 1246 353 1139 306 1186 m 419 8 l 419 500 l 110 1033 l 17 1033 l 17 1042 l 503 1042 l 503 1033 l 360 1033 l 631 542 l 879 1033 l 719 1033 l 719 1042 l 1011 1042 l 1011 1033 l 890 1033 l 636 532 l 636 8 l 775 8 l 775 0 l 294 0 l 294 8 "},"ė":{"ha":724,"x_min":0,"x_max":0,"o":"m 288 842 b 394 949 288 901 335 949 b 500 842 453 949 500 901 b 394 736 500 783 453 736 b 288 842 335 736 288 783 m 686 199 b 383 -14 650 78 551 -14 b 43 319 188 -14 43 104 b 381 653 43 535 185 653 b 685 358 588 653 685 510 l 258 358 b 258 333 258 350 258 342 b 419 0 258 154 289 0 b 678 199 550 0 643 85 l 686 199 m 381 644 b 258 367 292 644 263 513 l 478 367 b 381 644 478 486 469 644 "},"Ą":{"ha":1086,"x_min":0,"x_max":0,"o":"m 156 8 l 525 1063 l 600 1063 l 967 8 l 1067 8 l 1067 0 l 897 0 b 853 -157 874 -26 853 -82 b 922 -279 853 -235 882 -279 b 1006 -210 961 -279 983 -249 l 1011 -212 b 839 -314 990 -251 958 -314 b 667 -194 747 -314 667 -278 b 856 0 667 -101 763 -36 l 594 0 l 594 8 l 717 8 l 610 336 l 278 336 l 164 8 l 331 8 l 331 0 l 25 0 l 25 8 m 282 344 l 607 344 l 450 828 "},"ŀ":{"ha":706,"x_min":0,"x_max":0,"o":"m 142 8 l 142 1033 l 22 1033 l 22 1042 l 336 1042 l 336 8 l 456 8 l 456 0 l 22 0 l 22 8 m 417 597 b 542 722 417 667 472 722 b 667 597 611 722 667 667 b 542 472 667 528 611 472 b 417 597 472 472 417 528 "},"ń":{"ha":844,"x_min":0,"x_max":0,"o":"m 289 753 l 286 761 l 594 872 b 699 799 649 892 699 846 b 608 722 699 751 656 717 m 114 8 l 114 631 l 22 631 l 22 639 l 308 639 l 308 407 b 535 653 324 528 374 653 b 732 443 689 653 732 564 l 732 8 l 825 8 l 825 0 l 467 0 l 467 8 l 538 8 l 538 439 b 467 610 538 556 525 610 b 308 310 342 610 308 439 l 308 8 l 381 8 l 381 0 l 22 0 l 22 8 "},"‽":{"ha":917,"x_min":0,"x_max":0,"o":"m 90 772 b 474 1056 90 900 228 1056 b 861 764 683 1056 861 951 b 483 465 861 588 661 472 b 451 338 465 418 451 374 l 443 338 b 358 721 443 435 374 588 b 357 747 357 731 357 739 b 461 851 357 786 382 851 b 565 747 540 851 565 786 b 564 721 565 739 565 731 b 486 475 554 640 515 553 b 679 778 592 494 679 640 b 442 1038 679 908 593 1038 b 110 808 244 1038 122 906 b 204 868 118 836 153 868 b 304 764 265 868 304 813 b 197 651 304 688 246 651 b 90 772 142 651 90 694 m 318 111 b 443 236 318 181 374 236 b 568 111 513 236 568 181 b 443 -14 568 42 513 -14 b 318 111 374 -14 318 42 "},"ĉ":{"ha":711,"x_min":0,"x_max":0,"o":"m 182 711 l 178 715 l 344 903 l 463 903 l 629 715 l 625 711 l 403 806 m 619 531 b 419 642 597 590 511 642 b 272 319 289 642 272 450 b 421 3 272 161 303 3 b 650 199 535 3 614 83 l 658 199 b 388 -14 622 78 542 -14 b 43 319 185 -14 43 97 b 396 653 43 514 165 653 b 658 464 544 653 658 571 b 547 353 658 393 610 353 b 433 461 492 353 433 381 b 539 567 433 531 492 567 b 619 531 581 567 606 550 "},"Ū":{"ha":1003,"x_min":0,"x_max":0,"o":"m 703 1153 l 703 1144 l 311 1144 l 311 1153 m 503 1042 l 503 1033 l 364 1033 l 364 333 b 578 -3 364 150 399 -3 b 839 319 738 -3 839 96 l 839 1033 l 711 1033 l 711 1042 l 983 1042 l 983 1033 l 847 1033 l 847 319 b 525 -21 847 90 751 -21 b 150 319 264 -21 150 79 l 150 1033 l 25 1033 l 25 1042 "},"ĩ":{"ha":444,"x_min":0,"x_max":0,"o":"m 65 846 b -22 764 15 846 -22 815 l -31 764 b 107 968 -31 882 18 968 b 357 858 218 968 267 858 b 444 940 413 858 444 889 l 453 940 b 329 736 453 808 432 736 b 65 846 222 736 165 846 m 125 8 l 125 631 l 28 631 l 28 639 l 319 639 l 319 8 l 417 8 l 417 0 l 28 0 l 28 8 "},"ī":{"ha":444,"x_min":0,"x_max":0,"o":"m 369 754 l 369 746 l -22 746 l -22 754 m 125 8 l 125 631 l 28 631 l 28 639 l 319 639 l 319 8 l 417 8 l 417 0 l 28 0 l 28 8 "},"Ě":{"ha":871,"x_min":0,"x_max":0,"o":"m 649 1331 l 653 1326 l 486 1139 l 368 1139 l 201 1326 l 207 1331 l 426 1236 m 592 365 b 414 535 571 458 493 535 l 364 535 l 364 8 l 511 8 b 822 313 701 8 801 136 l 831 313 l 831 0 l 25 0 l 25 8 l 150 8 l 150 1033 l 25 1033 l 25 1042 l 817 1042 l 817 757 l 808 757 b 525 1033 788 906 688 1033 l 364 1033 l 364 543 l 414 543 b 592 706 493 543 571 613 l 600 706 l 600 365 l 592 365 "},"ţ":{"ha":497,"x_min":0,"x_max":0,"o":"m 275 -222 b 147 -137 275 -149 217 -137 l 244 -8 b 110 161 132 1 110 71 l 110 631 l 8 631 l 8 639 l 110 639 l 110 778 b 304 819 172 778 256 792 l 304 639 l 453 639 l 453 631 l 304 631 l 304 119 b 357 25 304 50 319 25 b 488 144 401 25 458 71 l 494 142 b 271 -10 461 53 383 -10 b 256 -10 265 -10 261 -10 l 201 -82 b 429 -194 333 -86 429 -117 b 153 -324 429 -264 363 -324 l 153 -315 b 275 -222 235 -315 275 -275 "},"Ķ":{"ha":1065,"x_min":0,"x_max":0,"o":"m 150 8 l 150 1033 l 25 1033 l 25 1042 l 503 1042 l 503 1033 l 364 1033 l 364 493 l 826 1033 l 664 1033 l 664 1042 l 997 1042 l 997 1033 l 840 1033 l 544 688 l 944 8 l 1058 8 l 1058 0 l 558 0 l 558 8 l 696 8 l 403 524 l 364 476 l 364 8 l 489 8 l 489 0 l 25 0 l 25 8 m 414 -207 b 549 -83 414 -140 475 -83 b 688 -269 624 -83 688 -147 b 411 -528 688 -408 578 -528 l 411 -519 b 672 -208 571 -519 706 -400 b 539 -331 661 -271 611 -331 b 414 -207 461 -331 414 -274 "},"ĸ":{"ha":896,"x_min":0,"x_max":0,"o":"m 151 8 l 151 631 l 26 631 l 26 639 l 346 639 l 346 397 l 674 631 l 497 631 l 497 639 l 807 639 l 807 631 l 686 631 l 461 465 l 815 8 l 875 8 l 875 0 l 483 0 l 483 8 l 576 8 l 346 317 l 346 8 l 422 8 l 422 0 l 26 0 l 26 8 "},"ġ":{"ha":853,"x_min":0,"x_max":0,"o":"m 306 867 b 413 974 306 926 353 974 b 518 867 471 974 518 926 b 413 761 518 808 471 761 b 306 867 353 761 306 808 m 67 92 b 278 229 67 178 174 218 b 57 438 164 246 57 308 b 340 653 57 590 207 653 b 564 578 421 653 508 631 b 706 646 603 629 658 646 b 839 531 797 646 839 583 b 750 429 839 454 792 429 b 664 517 708 429 664 457 b 750 599 664 563 700 599 b 822 556 786 599 815 578 b 706 638 814 597 778 638 b 569 572 658 638 607 619 b 624 438 603 539 624 494 b 340 225 624 285 474 225 b 306 226 329 225 317 225 b 189 160 250 219 189 199 b 331 117 189 118 254 117 b 450 118 379 117 411 118 b 682 -114 554 118 682 75 b 356 -361 682 -282 543 -361 b 22 -186 192 -361 22 -312 b 214 -40 22 -78 143 -46 b 67 92 131 -25 67 13 m 258 438 b 340 233 258 321 265 233 b 422 438 394 233 422 321 b 340 644 422 554 394 644 b 258 438 286 644 258 554 m 189 -153 b 369 -351 189 -261 250 -351 b 639 -172 497 -351 639 -300 b 453 -47 639 -86 543 -47 l 308 -47 b 238 -43 285 -47 260 -46 b 189 -153 194 -71 189 -124 "},"–":{"ha":558,"x_min":0,"x_max":0,"o":"m 475 386 l 475 378 l 83 378 l 83 386 "},"ĵ":{"ha":450,"x_min":0,"x_max":0,"o":"m -7 711 l -11 715 l 156 903 l 274 903 l 440 715 l 436 711 l 214 806 m 346 -17 b 44 -361 346 -199 239 -361 b -168 -196 -82 -361 -168 -287 b -54 -82 -168 -125 -115 -82 b 58 -185 1 -82 58 -115 b -61 -290 58 -251 11 -290 b -146 -226 -108 -290 -140 -260 b 28 -350 -142 -287 -69 -350 b 149 29 174 -350 149 -147 l 151 631 l 26 631 l 26 639 l 346 639 "},"¨":{"ha":632,"x_min":0,"x_max":0,"o":"m 365 1076 b 472 1182 365 1135 413 1182 b 578 1076 531 1182 578 1135 b 472 969 578 1017 531 969 b 365 1076 413 969 365 1017 m 67 1076 b 174 1182 67 1135 114 1182 b 279 1076 232 1182 279 1135 b 174 969 279 1017 232 969 b 67 1076 114 969 67 1017 "},"ȷ":{"ha":450,"x_min":0,"x_max":0,"o":"m 346 -17 b 44 -361 346 -199 239 -361 b -168 -196 -82 -361 -168 -287 b -54 -82 -168 -125 -115 -82 b 58 -185 1 -82 58 -115 b -61 -290 58 -251 11 -290 b -146 -226 -108 -290 -140 -260 b 28 -350 -142 -287 -69 -350 b 149 29 174 -350 149 -147 l 151 631 l 26 631 l 26 639 l 346 639 "},"":{"ha":806,"x_min":0,"x_max":0,"o":"m 75 785 b 396 1106 75 963 218 1106 b 717 785 574 1106 717 963 b 396 464 717 607 574 464 b 75 785 218 464 75 607 m 81 785 b 396 469 81 611 222 469 b 711 785 569 469 711 611 b 396 1100 711 958 569 1100 b 81 785 222 1100 81 958 m 533 597 l 531 597 l 489 625 b 403 592 468 604 439 592 b 222 785 292 592 222 674 b 403 978 222 896 292 978 b 481 946 433 978 460 965 l 525 972 l 528 972 l 528 863 l 525 863 b 408 972 507 926 464 972 b 311 785 333 972 311 876 b 408 597 311 693 333 597 b 529 707 475 597 514 647 l 533 707 "},"ą":{"ha":801,"x_min":0,"x_max":0,"o":"m 454 353 l 454 424 b 322 639 454 531 426 639 b 161 586 249 639 186 610 b 322 504 249 619 322 569 b 206 404 322 442 261 404 b 99 501 143 404 99 444 b 360 650 99 590 219 650 b 649 424 589 650 649 550 l 649 67 b 700 15 649 36 667 15 b 794 90 722 15 767 35 l 801 88 b 622 -14 769 19 700 -12 b 579 -168 599 -42 579 -96 b 649 -290 579 -246 608 -290 b 732 -221 688 -290 710 -260 l 738 -224 b 565 -325 717 -262 685 -325 b 393 -206 474 -325 393 -289 b 579 -12 393 -112 488 -49 b 454 108 510 -4 454 28 l 454 165 b 238 -14 433 49 364 -14 b 50 157 128 -14 50 54 b 354 353 50 274 151 353 m 339 44 b 454 251 394 44 454 94 l 454 344 l 403 344 b 261 175 318 344 261 267 b 339 44 261 93 289 44 "},"ļ":{"ha":476,"x_min":0,"x_max":0,"o":"m 142 8 l 142 1033 l 22 1033 l 22 1042 l 336 1042 l 336 8 l 456 8 l 456 0 l 22 0 l 22 8 m 115 -207 b 250 -83 115 -140 176 -83 b 389 -269 325 -83 389 -147 b 113 -528 389 -408 279 -528 l 113 -519 b 374 -208 272 -519 407 -400 b 240 -331 363 -271 313 -331 b 115 -207 163 -331 115 -274 "},"Ź":{"ha":857,"x_min":0,"x_max":0,"o":"m 242 1156 l 239 1164 l 547 1275 b 651 1201 601 1294 651 1249 b 561 1125 651 1154 608 1119 m 794 1042 l 794 1033 l 261 8 l 517 8 b 800 285 707 8 772 108 l 808 285 l 808 0 l 17 0 l 17 8 l 553 1033 l 336 1033 b 53 785 146 1033 81 933 l 44 785 l 44 1042 "},"ș":{"ha":613,"x_min":0,"x_max":0,"o":"m 53 -14 l 53 201 l 61 201 b 321 -6 99 78 196 -6 b 475 103 408 -6 475 32 b 67 451 475 254 67 179 b 282 651 67 561 150 651 b 440 593 347 651 400 628 l 522 653 l 529 653 l 529 458 l 521 458 b 283 643 492 544 413 643 b 156 551 210 643 156 607 b 578 204 156 406 578 465 b 326 -14 578 60 454 -14 b 143 53 253 -14 190 11 l 60 -14 m 185 -186 b 319 -62 185 -119 246 -62 b 458 -249 394 -62 458 -126 b 182 -507 458 -387 349 -507 l 182 -499 b 443 -187 342 -499 476 -379 b 310 -310 432 -250 382 -310 b 185 -186 232 -310 185 -253 "},"Ż":{"ha":857,"x_min":0,"x_max":0,"o":"m 326 1244 b 433 1351 326 1304 374 1351 b 539 1244 492 1351 539 1304 b 433 1139 539 1186 492 1139 b 326 1244 374 1139 326 1186 m 794 1042 l 794 1033 l 261 8 l 517 8 b 800 285 707 8 772 108 l 808 285 l 808 0 l 17 0 l 17 8 l 553 1033 l 336 1033 b 53 785 146 1033 81 933 l 44 785 l 44 1042 "},"Ď":{"ha":1051,"x_min":0,"x_max":0,"o":"m 725 1331 l 729 1326 l 563 1139 l 444 1139 l 278 1326 l 283 1331 l 503 1236 m 25 0 l 25 8 l 150 8 l 150 1033 l 25 1033 l 25 1042 l 469 1042 b 997 521 800 1042 997 831 b 469 0 997 211 786 0 m 364 1033 l 364 8 l 469 8 b 753 521 683 8 753 247 b 469 1033 753 794 669 1033 "},"Ś":{"ha":829,"x_min":0,"x_max":0,"o":"m 297 1156 l 294 1164 l 603 1275 b 707 1201 657 1294 707 1249 b 617 1125 707 1154 664 1119 m 58 -14 l 58 313 l 68 313 b 419 -11 121 151 219 -11 b 633 196 553 -11 633 74 b 72 778 633 460 72 375 b 381 1056 72 951 219 1056 b 590 975 465 1056 535 1028 l 711 1056 l 719 1056 l 719 743 l 710 743 b 389 1044 654 932 546 1044 b 219 879 276 1044 219 975 b 775 299 219 643 775 700 b 428 -21 775 104 624 -21 b 192 74 325 -21 250 17 l 67 -14 "},"‑":{"ha":399,"x_min":0,"x_max":0,"o":"m 315 386 l 315 378 l 83 378 l 83 386 "},"Ŀ":{"ha":854,"x_min":0,"x_max":0,"o":"m 25 0 l 25 8 l 150 8 l 150 1033 l 25 1033 l 25 1042 l 489 1042 l 489 1033 l 364 1033 l 364 8 l 507 8 b 818 313 711 8 797 136 l 826 313 l 826 0 m 483 722 b 608 847 483 792 539 847 b 733 722 678 847 733 792 b 608 597 733 653 678 597 b 483 722 539 597 483 653 "},"Ș":{"ha":829,"x_min":0,"x_max":0,"o":"m 58 -14 l 58 313 l 68 313 b 419 -11 121 151 219 -11 b 633 196 553 -11 633 74 b 72 778 633 460 72 375 b 381 1056 72 951 219 1056 b 590 975 465 1056 535 1028 l 711 1056 l 719 1056 l 719 743 l 710 743 b 389 1044 654 932 546 1044 b 219 879 276 1044 219 975 b 775 299 219 643 775 700 b 428 -21 775 104 624 -21 b 192 74 325 -21 250 17 l 67 -14 m 300 -228 b 435 -104 300 -161 361 -104 b 574 -290 510 -104 574 -168 b 297 -549 574 -429 464 -549 l 297 -540 b 558 -229 457 -540 592 -421 b 425 -351 547 -292 497 -351 b 300 -228 347 -351 300 -294 "},"Č":{"ha":975,"x_min":0,"x_max":0,"o":"m 788 1331 l 792 1326 l 625 1139 l 507 1139 l 340 1326 l 346 1331 l 565 1236 m 919 0 l 914 0 l 800 78 b 558 -14 739 21 658 -14 b 58 521 249 -14 58 211 b 558 1056 58 831 249 1056 b 776 969 646 1056 718 1024 l 900 1042 l 906 1042 l 906 736 l 897 736 b 572 1042 847 914 728 1042 b 303 521 365 1042 303 774 b 572 0 303 268 365 0 b 911 306 760 0 867 139 l 919 306 "},"­":{"ha":500,"x_min":0,"x_max":0,"o":"m 417 386 l 417 378 l 83 378 l 83 386 "},"¸":{"ha":764,"x_min":0,"x_max":0,"o":"m 429 -194 b 301 -110 429 -121 371 -110 l 426 57 l 439 57 l 356 -54 b 583 -167 488 -58 583 -89 b 307 -296 583 -236 517 -296 l 307 -287 b 429 -194 389 -287 429 -247 "},"ŵ":{"ha":1133,"x_min":0,"x_max":0,"o":"m 393 746 l 389 750 l 556 938 l 674 938 l 840 750 l 836 746 l 614 840 m 615 653 l 714 653 l 850 208 l 989 631 l 846 631 l 846 639 l 1133 639 l 1133 631 l 1000 631 l 785 -14 l 726 -14 l 550 467 l 353 -14 l 294 -14 l 85 631 l -3 631 l -3 639 l 411 639 l 411 631 l 292 631 l 422 179 "},"ĕ":{"ha":724,"x_min":0,"x_max":0,"o":"m 228 957 b 386 868 228 893 311 868 b 544 957 461 868 544 893 l 553 957 b 386 736 553 824 504 736 b 219 957 268 736 219 824 l 228 957 m 686 199 b 383 -14 650 78 551 -14 b 43 319 188 -14 43 104 b 381 653 43 535 185 653 b 685 358 588 653 685 510 l 258 358 b 258 333 258 350 258 342 b 419 0 258 154 289 0 b 678 199 550 0 643 85 l 686 199 m 381 644 b 258 367 292 644 263 513 l 478 367 b 381 644 478 486 469 644 "},"ﬂ":{"ha":933,"x_min":0,"x_max":0,"o":"m 142 8 l 142 631 l 17 631 l 17 639 l 142 639 l 142 711 b 486 1056 142 907 285 1056 b 615 1014 539 1056 583 1040 l 808 1069 l 808 8 l 919 8 l 919 0 l 17 0 l 17 8 m 331 631 l 331 8 l 614 8 l 614 785 b 569 776 600 779 586 776 b 458 879 514 776 458 810 b 567 986 458 949 506 986 b 614 974 586 986 601 981 l 614 1003 b 492 1047 586 1029 544 1047 b 331 750 369 1047 331 926 l 331 639 l 521 639 l 521 631 "},"‰":{"ha":2097,"x_min":0,"x_max":0,"o":"m 49 750 b 354 1056 49 949 197 1056 b 660 750 511 1056 660 949 b 354 444 660 551 483 444 b 49 750 197 444 49 551 m 264 750 b 354 453 264 563 286 453 b 444 750 422 453 444 563 b 354 1047 444 938 422 1047 b 264 750 286 1047 264 938 m 1076 1042 l 350 0 l 340 0 l 1067 1042 m 1438 292 b 1743 597 1438 490 1586 597 b 2049 292 1900 597 2049 490 b 1743 -14 2049 93 1872 -14 b 1438 292 1586 -14 1438 93 m 757 292 b 1063 597 757 490 906 597 b 1368 292 1219 597 1368 490 b 1063 -14 1368 93 1192 -14 b 757 292 906 -14 757 93 m 1653 292 b 1743 -6 1653 104 1675 -6 b 1833 292 1811 -6 1833 104 b 1743 589 1833 479 1811 589 b 1653 292 1675 589 1653 479 m 972 292 b 1063 -6 972 104 994 -6 b 1153 292 1131 -6 1153 104 b 1063 589 1153 479 1131 589 b 972 292 994 589 972 479 "},"ň":{"ha":844,"x_min":0,"x_max":0,"o":"m 692 921 l 696 917 l 529 729 l 411 729 l 244 917 l 250 921 l 469 826 m 114 8 l 114 631 l 22 631 l 22 639 l 308 639 l 308 407 b 535 653 324 528 374 653 b 732 443 689 653 732 564 l 732 8 l 825 8 l 825 0 l 467 0 l 467 8 l 538 8 l 538 439 b 467 610 538 556 525 610 b 308 310 342 610 308 439 l 308 8 l 381 8 l 381 0 l 22 0 l 22 8 "},"Ĉ":{"ha":975,"x_min":0,"x_max":0,"o":"m 344 1114 l 340 1118 l 507 1306 l 625 1306 l 792 1118 l 788 1114 l 565 1208 m 919 0 l 914 0 l 800 78 b 558 -14 739 21 658 -14 b 58 521 249 -14 58 211 b 558 1056 58 831 249 1056 b 776 969 646 1056 718 1024 l 900 1042 l 906 1042 l 906 736 l 897 736 b 572 1042 847 914 728 1042 b 303 521 365 1042 303 774 b 572 0 303 268 365 0 b 911 306 760 0 867 139 l 919 306 "},"Ŷ":{"ha":1024,"x_min":0,"x_max":0,"o":"m 299 1149 l 294 1153 l 461 1340 l 579 1340 l 746 1153 l 742 1149 l 519 1243 m 419 8 l 419 500 l 110 1033 l 17 1033 l 17 1042 l 503 1042 l 503 1033 l 360 1033 l 631 542 l 879 1033 l 719 1033 l 719 1042 l 1011 1042 l 1011 1033 l 890 1033 l 636 532 l 636 8 l 775 8 l 775 0 l 294 0 l 294 8 "},"Ī":{"ha":579,"x_min":0,"x_max":0,"o":"m 494 1157 l 494 1149 l 103 1149 l 103 1157 m 178 8 l 178 1033 l 25 1033 l 25 1042 l 558 1042 l 558 1033 l 392 1033 l 392 8 l 558 8 l 558 0 l 25 0 l 25 8 "},"ũ":{"ha":844,"x_min":0,"x_max":0,"o":"m 242 846 b 154 764 192 846 154 815 l 146 764 b 283 968 146 882 194 968 b 533 858 394 968 443 858 b 621 940 589 858 621 889 l 629 940 b 506 736 629 808 608 736 b 242 846 399 736 342 846 m 308 200 b 379 29 308 83 321 29 b 538 329 504 29 538 200 l 538 631 l 447 631 l 447 639 l 732 639 l 732 8 l 825 8 l 825 0 l 538 0 l 538 222 b 311 -14 521 104 468 -14 b 114 196 157 -14 114 75 l 114 631 l 22 631 l 22 639 l 308 639 "},"ŭ":{"ha":844,"x_min":0,"x_max":0,"o":"m 222 971 b 381 882 222 907 306 882 b 539 971 456 882 539 907 l 547 971 b 381 750 547 838 499 750 b 214 971 263 750 214 838 l 222 971 m 308 200 b 379 29 308 83 321 29 b 538 329 504 29 538 200 l 538 631 l 447 631 l 447 639 l 732 639 l 732 8 l 825 8 l 825 0 l 538 0 l 538 222 b 311 -14 521 104 468 -14 b 114 196 157 -14 114 75 l 114 631 l 22 631 l 22 639 l 308 639 "},"Ć":{"ha":975,"x_min":0,"x_max":0,"o":"m 358 1169 l 356 1178 l 664 1289 b 768 1215 718 1308 768 1263 b 678 1139 768 1168 725 1133 m 919 0 l 914 0 l 800 78 b 558 -14 739 21 658 -14 b 58 521 249 -14 58 211 b 558 1056 58 831 249 1056 b 776 969 646 1056 718 1024 l 900 1042 l 906 1042 l 906 736 l 897 736 b 572 1042 847 914 728 1042 b 303 521 365 1042 303 774 b 572 0 303 268 365 0 b 911 306 760 0 867 139 l 919 306 "},"ĝ":{"ha":853,"x_min":0,"x_max":0,"o":"m 188 746 l 183 750 l 350 938 l 468 938 l 635 750 l 631 746 l 408 840 m 67 92 b 278 229 67 178 174 218 b 57 438 164 246 57 308 b 340 653 57 590 207 653 b 564 578 421 653 508 631 b 706 646 603 629 658 646 b 839 531 797 646 839 583 b 750 429 839 454 792 429 b 664 517 708 429 664 457 b 750 599 664 563 700 599 b 822 556 786 599 815 578 b 706 638 814 597 778 638 b 569 572 658 638 607 619 b 624 438 603 539 624 494 b 340 225 624 285 474 225 b 306 226 329 225 317 225 b 189 160 250 219 189 199 b 331 117 189 118 254 117 b 450 118 379 117 411 118 b 682 -114 554 118 682 75 b 356 -361 682 -282 543 -361 b 22 -186 192 -361 22 -312 b 214 -40 22 -78 143 -46 b 67 92 131 -25 67 13 m 258 438 b 340 233 258 321 265 233 b 422 438 394 233 422 321 b 340 644 422 554 394 644 b 258 438 286 644 258 554 m 189 -153 b 369 -351 189 -261 250 -351 b 639 -172 497 -351 639 -300 b 453 -47 639 -86 543 -47 l 308 -47 b 238 -43 285 -47 260 -46 b 189 -153 194 -71 189 -124 "},"π":{"ha":876,"x_min":0,"x_max":0,"o":"m 172 -14 b 56 81 101 -14 56 25 b 274 388 56 210 274 149 l 274 444 l 65 444 l 65 340 l 57 340 l 57 639 l 800 639 l 800 444 l 675 444 l 675 111 b 728 58 675 83 689 58 b 822 147 761 58 794 82 l 828 143 b 643 -14 796 46 743 -14 b 481 115 550 -14 481 26 l 481 444 l 351 444 l 351 338 b 172 -14 351 118 288 -14 "},"”":{"ha":729,"x_min":0,"x_max":0,"o":"m 56 946 b 190 1069 56 1013 117 1069 b 329 883 265 1069 329 1006 b 53 625 329 744 219 625 l 53 633 b 314 944 213 633 347 753 b 181 822 303 882 253 822 b 56 946 103 822 56 879 m 403 946 b 538 1069 403 1013 464 1069 b 676 883 613 1069 676 1006 b 400 625 676 744 567 625 l 400 633 b 661 944 560 633 694 753 b 528 822 650 882 600 822 b 403 946 450 822 403 879 "},"Ļ":{"ha":854,"x_min":0,"x_max":0,"o":"m 25 0 l 25 8 l 150 8 l 150 1033 l 25 1033 l 25 1042 l 489 1042 l 489 1033 l 364 1033 l 364 8 l 507 8 b 818 313 711 8 797 136 l 826 313 l 826 0 m 297 -207 b 432 -83 297 -140 358 -83 b 571 -269 507 -83 571 -147 b 294 -528 571 -408 461 -528 l 294 -519 b 556 -208 454 -519 589 -400 b 422 -331 544 -271 494 -331 b 297 -207 344 -331 297 -274 "},"ā":{"ha":801,"x_min":0,"x_max":0,"o":"m 581 754 l 581 746 l 189 746 l 189 754 m 454 353 l 454 424 b 322 639 454 531 426 639 b 161 586 249 639 186 610 b 322 504 249 619 322 569 b 206 404 322 442 261 404 b 99 501 143 404 99 444 b 360 650 99 590 219 650 b 649 424 589 650 649 550 l 649 67 b 700 15 649 36 667 15 b 794 90 722 15 767 35 l 801 88 b 617 -14 769 18 697 -14 b 454 108 531 -14 454 14 l 454 165 b 238 -14 433 49 364 -14 b 50 157 128 -14 50 54 b 354 353 50 274 151 353 m 339 44 b 454 251 394 44 454 94 l 454 344 l 403 344 b 261 175 318 344 261 267 b 339 44 261 93 289 44 "},"Į":{"ha":579,"x_min":0,"x_max":0,"o":"m 178 8 l 178 1033 l 25 1033 l 25 1042 l 558 1042 l 558 1033 l 392 1033 l 392 8 l 558 8 l 558 0 l 282 0 b 233 -161 257 -24 233 -82 b 303 -283 233 -239 263 -283 b 386 -214 342 -283 364 -253 l 392 -217 b 219 -318 371 -256 339 -318 b 47 -199 128 -318 47 -282 b 247 0 47 -101 150 -36 l 25 0 l 25 8 "},"ř":{"ha":651,"x_min":0,"x_max":0,"o":"m 554 921 l 558 917 l 392 729 l 274 729 l 107 917 l 113 921 l 332 826 m 114 8 l 114 631 l 22 631 l 22 639 l 308 639 l 308 436 b 489 653 321 556 364 653 b 644 506 567 653 644 594 b 529 386 644 442 603 386 b 413 497 463 386 413 428 b 617 558 413 604 556 647 b 488 644 599 614 540 644 b 308 310 326 644 308 463 l 308 8 l 400 8 l 400 0 l 22 0 l 22 8 "},"ē":{"ha":724,"x_min":0,"x_max":0,"o":"m 581 754 l 581 746 l 189 746 l 189 754 m 686 199 b 383 -14 650 78 551 -14 b 43 319 188 -14 43 104 b 381 653 43 535 185 653 b 685 358 588 653 685 510 l 258 358 b 258 333 258 350 258 342 b 419 0 258 154 289 0 b 678 199 550 0 643 85 l 686 199 m 381 644 b 258 367 292 644 263 513 l 478 367 b 381 644 478 486 469 644 "},"ų":{"ha":844,"x_min":0,"x_max":0,"o":"m 308 200 b 379 29 308 83 321 29 b 538 329 504 29 538 200 l 538 631 l 447 631 l 447 639 l 732 639 l 732 8 l 825 8 l 825 0 l 693 0 b 650 -156 671 -26 650 -82 b 719 -278 650 -233 679 -278 b 803 -208 758 -278 781 -247 l 808 -211 b 636 -312 788 -250 756 -312 b 464 -193 544 -312 464 -276 b 649 0 464 -101 557 -36 l 538 0 l 538 222 b 311 -14 521 104 468 -14 b 114 196 157 -14 114 75 l 114 631 l 22 631 l 22 639 l 308 639 "},"Đ":{"ha":1051,"x_min":0,"x_max":0,"o":"m 25 0 l 25 8 l 150 8 l 150 503 l 25 503 l 25 511 l 150 511 l 150 1033 l 25 1033 l 25 1042 l 469 1042 b 997 521 800 1042 997 831 b 469 0 997 211 786 0 m 364 503 l 364 8 l 469 8 b 753 521 683 8 753 247 b 469 1033 753 794 669 1033 l 364 1033 l 364 511 l 507 511 l 507 503 "},"ņ":{"ha":844,"x_min":0,"x_max":0,"o":"m 114 8 l 114 631 l 22 631 l 22 639 l 308 639 l 308 407 b 535 653 324 528 374 653 b 732 443 689 653 732 564 l 732 8 l 825 8 l 825 0 l 467 0 l 467 8 l 538 8 l 538 439 b 467 610 538 556 525 610 b 308 310 342 610 308 439 l 308 8 l 381 8 l 381 0 l 22 0 l 22 8 m 300 -207 b 435 -83 300 -140 361 -83 b 574 -269 510 -83 574 -147 b 297 -528 574 -408 464 -528 l 297 -519 b 558 -208 457 -519 592 -400 b 425 -331 547 -271 497 -331 b 300 -207 347 -331 300 -274 "},"Ņ":{"ha":1040,"x_min":0,"x_max":0,"o":"m 164 8 l 164 1033 l 25 1033 l 25 1042 l 419 1042 l 867 354 l 867 1033 l 708 1033 l 708 1042 l 1019 1042 l 1019 1033 l 875 1033 l 875 -14 l 861 -14 l 172 1029 l 172 8 l 333 8 l 333 0 l 25 0 l 25 8 m 406 -193 b 540 -69 406 -126 467 -69 b 679 -256 615 -69 679 -133 b 403 -514 679 -394 569 -514 l 403 -506 b 664 -194 563 -506 697 -386 b 531 -317 653 -257 603 -317 b 406 -193 453 -317 406 -260 "},"ŏ":{"ha":763,"x_min":0,"x_max":0,"o":"m 231 957 b 389 868 231 893 314 868 b 547 957 464 868 547 893 l 556 957 b 389 736 556 824 507 736 b 222 957 271 736 222 824 l 231 957 m 43 319 b 382 653 43 500 172 653 b 721 319 592 653 721 500 b 382 -14 721 139 592 -14 b 43 319 172 -14 43 139 m 251 319 b 382 -6 251 154 279 -6 b 513 319 485 -6 513 154 b 382 644 513 485 485 644 b 251 319 279 644 251 485 "},"ľ":{"ha":743,"x_min":0,"x_max":0,"o":"m 433 1001 b 568 1125 433 1068 494 1125 b 707 939 643 1125 707 1061 b 431 681 707 800 597 681 l 431 689 b 692 1000 590 689 725 808 b 558 878 681 938 631 878 b 433 1001 481 878 433 935 m 142 8 l 142 1033 l 22 1033 l 22 1042 l 336 1042 l 336 8 l 456 8 l 456 0 l 22 0 l 22 8 "},"Ę":{"ha":871,"x_min":0,"x_max":0,"o":"m 592 365 b 414 535 571 458 493 535 l 364 535 l 364 8 l 511 8 b 822 313 701 8 801 136 l 831 313 l 831 0 l 679 0 b 628 -164 653 -22 628 -82 b 697 -286 628 -242 657 -286 b 781 -217 736 -286 758 -256 l 786 -219 b 614 -321 765 -258 733 -321 b 442 -201 522 -321 442 -285 b 649 0 442 -101 550 -35 l 25 0 l 25 8 l 150 8 l 150 1033 l 25 1033 l 25 1042 l 817 1042 l 817 757 l 808 757 b 525 1033 788 906 688 1033 l 364 1033 l 364 543 l 414 543 b 592 706 493 543 571 613 l 600 706 l 600 365 l 592 365 "},"Ā":{"ha":1086,"x_min":0,"x_max":0,"o":"m 753 1164 l 753 1156 l 361 1156 l 361 1164 m 156 8 l 525 1063 l 600 1063 l 967 8 l 1067 8 l 1067 0 l 594 0 l 594 8 l 717 8 l 610 336 l 278 336 l 164 8 l 331 8 l 331 0 l 25 0 l 25 8 m 282 344 l 607 344 l 450 828 "},"˛":{"ha":764,"x_min":0,"x_max":0,"o":"m 556 -171 b 383 -272 535 -210 503 -272 b 211 -153 292 -272 211 -236 b 453 60 211 -42 347 29 l 457 54 b 397 -115 428 38 397 -25 b 467 -237 397 -193 426 -237 b 550 -168 506 -237 528 -207 l 556 -171 "},"ĭ":{"ha":444,"x_min":0,"x_max":0,"o":"m 47 971 b 206 882 47 907 131 882 b 364 971 281 882 364 907 l 372 971 b 206 750 372 838 324 750 b 39 971 88 750 39 838 l 47 971 m 125 8 l 125 631 l 28 631 l 28 639 l 319 639 l 319 8 l 417 8 l 417 0 l 28 0 l 28 8 "},"“":{"ha":729,"x_min":0,"x_max":0,"o":"m 674 757 b 539 633 674 690 613 633 b 400 819 464 633 400 697 b 676 1078 400 958 510 1078 l 676 1069 b 415 758 517 1069 382 950 b 549 881 426 821 476 881 b 674 757 626 881 674 824 m 326 757 b 192 633 326 690 265 633 b 53 819 117 633 53 697 b 329 1078 53 958 163 1078 l 329 1069 b 68 758 169 1069 35 950 b 201 881 79 821 129 881 b 326 757 279 881 326 824 "},"Ē":{"ha":871,"x_min":0,"x_max":0,"o":"m 621 1157 l 621 1149 l 229 1149 l 229 1157 m 592 365 b 414 535 571 458 493 535 l 364 535 l 364 8 l 511 8 b 822 313 701 8 801 136 l 831 313 l 831 0 l 25 0 l 25 8 l 150 8 l 150 1033 l 25 1033 l 25 1042 l 817 1042 l 817 757 l 808 757 b 525 1033 788 906 688 1033 l 364 1033 l 364 543 l 414 543 b 592 706 493 543 571 613 l 600 706 l 600 365 l 592 365 "},"Œ":{"ha":1378,"x_min":0,"x_max":0,"o":"m 1099 365 b 921 535 1078 458 1000 535 l 871 535 l 871 8 l 1018 8 b 1329 313 1208 8 1308 136 l 1338 313 l 1338 0 l 532 0 l 531 0 b 56 521 249 0 56 211 b 531 1042 56 831 249 1042 l 532 1042 l 1324 1042 l 1324 757 l 1315 757 b 1032 1033 1294 906 1194 1033 l 871 1033 l 871 543 l 921 543 b 1099 706 1000 543 1078 613 l 1107 706 l 1107 365 l 1099 365 m 299 521 b 558 8 299 247 365 8 l 657 8 l 657 1033 l 558 1033 b 299 521 365 1033 299 794 "},"š":{"ha":613,"x_min":0,"x_max":0,"o":"m 542 928 l 546 924 l 379 736 l 261 736 l 94 924 l 100 928 l 319 833 m 53 -14 l 53 201 l 61 201 b 321 -6 99 78 196 -6 b 475 103 408 -6 475 32 b 67 451 475 254 67 179 b 282 651 67 561 150 651 b 440 593 347 651 400 628 l 522 653 l 529 653 l 529 458 l 521 458 b 283 643 492 544 413 643 b 156 551 210 643 156 607 b 578 204 156 406 578 465 b 326 -14 578 60 454 -14 b 143 53 253 -14 190 11 l 60 -14 "},"ś":{"ha":613,"x_min":0,"x_max":0,"o":"m 111 794 l 108 803 l 417 914 b 521 840 471 933 521 888 b 431 764 521 793 478 758 m 53 -14 l 53 201 l 61 201 b 321 -6 99 78 196 -6 b 475 103 408 -6 475 32 b 67 451 475 254 67 179 b 282 651 67 561 150 651 b 440 593 347 651 400 628 l 522 653 l 529 653 l 529 458 l 521 458 b 283 643 492 544 413 643 b 156 551 210 643 156 607 b 578 204 156 406 578 465 b 326 -14 578 60 454 -14 b 143 53 253 -14 190 11 l 60 -14 "},"¹":{"ha":736,"x_min":0,"x_max":0,"o":"m 299 639 l 299 1253 l 204 1253 l 204 1258 l 428 1258 l 428 639 l 519 639 l 519 633 l 190 633 l 190 639 "},"Š":{"ha":829,"x_min":0,"x_max":0,"o":"m 636 1331 l 640 1326 l 474 1139 l 356 1139 l 189 1326 l 194 1331 l 414 1236 m 58 -14 l 58 313 l 68 313 b 419 -11 121 151 219 -11 b 633 196 553 -11 633 74 b 72 778 633 460 72 375 b 381 1056 72 951 219 1056 b 590 975 465 1056 535 1028 l 711 1056 l 719 1056 l 719 743 l 710 743 b 389 1044 654 932 546 1044 b 219 879 276 1044 219 975 b 775 299 219 643 775 700 b 428 -21 775 104 624 -21 b 192 74 325 -21 250 17 l 67 -14 "},"Ũ":{"ha":1003,"x_min":0,"x_max":0,"o":"m 365 1249 b 278 1167 315 1249 278 1218 l 269 1167 b 407 1371 269 1285 318 1371 b 657 1261 518 1371 567 1261 b 744 1343 713 1261 744 1292 l 753 1343 b 629 1139 753 1211 732 1139 b 365 1249 522 1139 465 1249 m 503 1042 l 503 1033 l 364 1033 l 364 333 b 578 -3 364 150 399 -3 b 839 319 738 -3 839 96 l 839 1033 l 711 1033 l 711 1042 l 983 1042 l 983 1033 l 847 1033 l 847 319 b 525 -21 847 90 751 -21 b 150 319 264 -21 150 79 l 150 1033 l 25 1033 l 25 1042 "},"Ŕ":{"ha":1031,"x_min":0,"x_max":0,"o":"m 289 1183 l 286 1192 l 594 1303 b 699 1229 649 1322 699 1276 b 608 1153 699 1182 656 1147 m 164 8 l 164 1033 l 25 1033 l 25 1042 l 511 1042 b 900 785 742 1042 900 965 b 589 535 900 624 786 550 b 939 7 1040 532 768 7 b 1014 25 968 7 994 17 l 1017 17 b 850 -11 994 4 932 -11 b 475 531 471 -11 817 531 l 378 531 l 378 8 l 517 8 l 517 0 l 25 0 l 25 8 m 378 1033 l 378 539 l 475 539 b 678 785 608 539 678 619 b 475 1033 678 950 608 1033 "},"ž":{"ha":654,"x_min":0,"x_max":0,"o":"m 561 928 l 565 924 l 399 736 l 281 736 l 114 924 l 119 928 l 339 833 m 281 631 b 63 400 150 631 83 540 l 54 400 l 54 639 l 611 639 l 611 631 l 235 8 l 375 8 b 625 256 538 8 604 83 l 633 256 l 633 0 l 15 0 l 15 8 l 390 631 l 281 631 "},"":{"ha":901,"x_min":0,"x_max":0,"o":"m 461 679 l 461 1049 l 422 1049 l 422 1051 l 540 1051 l 639 783 l 733 1051 l 847 1051 l 847 1049 l 813 1049 l 813 679 l 847 679 l 847 676 l 694 676 l 694 679 l 735 679 l 735 1046 l 604 671 l 601 671 l 464 1046 l 464 679 l 501 679 l 501 676 l 425 676 l 425 679 m 179 679 l 179 1049 l 147 1049 b 61 932 94 1049 68 994 l 57 932 l 57 1051 l 379 1051 l 379 932 l 376 932 b 290 1049 369 994 343 1049 l 257 1049 l 257 679 l 313 679 l 313 676 l 125 676 l 125 679 "},"ŷ":{"ha":814,"x_min":0,"x_max":0,"o":"m 208 746 l 204 750 l 371 938 l 489 938 l 656 750 l 651 746 l 429 840 m 418 -32 l 78 631 l -10 631 l -10 639 l 442 639 l 442 631 l 307 631 l 525 200 l 721 631 l 583 631 l 583 639 l 831 639 l 831 631 l 732 631 l 319 -267 b 201 -358 294 -319 261 -358 b 93 -254 146 -358 93 -321 b 204 -144 93 -194 139 -144 b 311 -267 265 -144 317 -197 "},"ť":{"ha":689,"x_min":0,"x_max":0,"o":"m 389 1071 b 524 1194 389 1138 450 1194 b 663 1008 599 1194 663 1131 b 386 750 663 869 553 750 l 386 758 b 647 1069 546 758 681 878 b 514 947 636 1007 586 947 b 389 1071 436 947 389 1004 m 494 142 b 271 -10 461 53 383 -10 b 110 161 136 -10 110 64 l 110 631 l 8 631 l 8 639 l 110 639 l 110 778 b 304 819 172 778 256 792 l 304 639 l 453 639 l 453 631 l 304 631 l 304 119 b 357 25 304 50 319 25 b 488 144 401 25 458 71 l 494 142 "},"Ĩ":{"ha":579,"x_min":0,"x_max":0,"o":"m 154 1249 b 67 1167 104 1249 67 1218 l 58 1167 b 196 1371 58 1285 107 1371 b 446 1261 307 1371 356 1261 b 533 1343 501 1261 533 1292 l 542 1343 b 418 1139 542 1211 521 1139 b 154 1249 311 1139 254 1249 m 178 8 l 178 1033 l 25 1033 l 25 1042 l 558 1042 l 558 1033 l 392 1033 l 392 8 l 558 8 l 558 0 l 25 0 l 25 8 "},"€":{"ha":1007,"x_min":0,"x_max":0,"o":"m 163 407 b 153 521 156 443 153 481 b 158 607 153 550 154 579 l 42 607 l 42 615 l 160 615 b 638 1056 194 863 371 1056 b 944 842 828 1056 944 935 b 831 721 944 764 893 721 b 717 833 775 721 717 757 b 831 944 717 903 769 944 b 915 903 872 944 904 919 b 665 1044 890 963 796 1044 b 406 615 489 1044 419 847 l 653 615 l 653 607 l 406 607 b 403 521 404 579 403 550 b 407 407 403 482 404 443 l 653 407 l 653 399 l 407 399 b 639 3 426 165 503 3 b 919 247 776 3 885 117 l 928 247 b 601 -14 892 113 783 -14 b 164 399 390 -14 208 147 l 42 399 l 42 407 "},"ﬀ":{"ha":972,"x_min":0,"x_max":0,"o":"m 142 8 l 142 631 l 17 631 l 17 639 l 142 639 l 142 642 b 500 986 142 838 292 986 b 649 933 560 986 613 965 b 913 1056 707 1008 800 1056 b 1104 897 1032 1056 1104 976 b 997 783 1104 826 1060 783 b 885 886 942 783 885 817 b 994 994 885 956 936 994 b 1083 936 1036 994 1072 967 b 919 1047 1072 986 1017 1047 b 764 750 808 1047 764 926 l 764 639 l 956 639 l 956 631 l 764 631 l 764 8 l 928 8 l 928 0 l 17 0 l 17 8 m 331 639 l 576 639 l 576 708 b 486 811 529 717 486 750 b 592 917 486 881 533 917 b 631 907 606 917 618 913 b 642 924 635 914 638 919 b 506 978 608 954 558 978 b 331 681 396 978 331 857 m 576 8 l 576 631 l 331 631 l 331 8 "},"²":{"ha":653,"x_min":0,"x_max":0,"o":"m 139 635 l 139 718 l 315 861 b 425 1076 388 921 425 986 b 307 1250 425 1179 383 1250 b 154 1090 221 1250 153 1179 b 226 1144 164 1121 190 1144 b 304 1074 271 1144 304 1115 b 222 996 304 1028 264 996 b 147 1092 181 996 147 1028 b 356 1268 147 1190 225 1268 b 558 1110 486 1268 558 1197 b 404 921 558 1014 465 968 l 208 760 l 571 760 l 571 822 l 576 822 l 576 635 "},"ū":{"ha":844,"x_min":0,"x_max":0,"o":"m 581 750 l 581 742 l 189 742 l 189 750 m 308 200 b 379 29 308 83 321 29 b 538 329 504 29 538 200 l 538 631 l 447 631 l 447 639 l 732 639 l 732 8 l 825 8 l 825 0 l 538 0 l 538 222 b 311 -14 521 104 468 -14 b 114 196 157 -14 114 75 l 114 631 l 22 631 l 22 639 l 308 639 "},"—":{"ha":735,"x_min":0,"x_max":0,"o":"m 651 386 l 651 378 l 82 378 l 82 386 "},"Ĵ":{"ha":740,"x_min":0,"x_max":0,"o":"m 224 1114 l 219 1118 l 386 1306 l 504 1306 l 671 1118 l 667 1114 l 444 1208 m 719 1042 l 719 1033 l 581 1033 l 581 236 b 247 -42 525 104 450 -42 b 17 146 106 -42 17 42 b 144 278 17 225 75 278 b 264 154 207 278 264 232 b 144 31 264 85 211 31 b 57 58 103 31 68 46 b 244 -33 85 13 151 -33 b 367 264 349 -33 367 69 l 367 1033 l 186 1033 l 186 1042 "},"Ğ":{"ha":1051,"x_min":0,"x_max":0,"o":"m 422 1360 b 581 1271 422 1296 506 1271 b 739 1360 656 1271 739 1296 l 747 1360 b 581 1139 747 1226 699 1139 b 414 1360 463 1139 414 1226 l 422 1360 m 1039 400 l 1039 392 l 969 392 l 969 215 b 553 -14 879 121 779 -14 b 58 521 243 -14 58 197 b 572 1056 58 844 290 1056 b 792 975 653 1056 729 1025 l 928 1042 l 933 1042 l 933 736 l 925 736 b 592 1042 896 883 758 1042 b 303 521 385 1042 303 774 b 553 -4 303 268 353 -4 b 739 174 669 -4 718 115 l 739 392 l 594 392 l 594 400 "},"ŝ":{"ha":613,"x_min":0,"x_max":0,"o":"m 119 711 l 115 715 l 282 903 l 400 903 l 567 715 l 563 711 l 340 806 m 53 -14 l 53 201 l 61 201 b 321 -6 99 78 196 -6 b 475 103 408 -6 475 32 b 67 451 475 254 67 179 b 282 651 67 561 150 651 b 440 593 347 651 400 628 l 522 653 l 529 653 l 529 458 l 521 458 b 283 643 492 544 413 643 b 156 551 210 643 156 607 b 578 204 156 406 578 465 b 326 -14 578 60 454 -14 b 143 53 253 -14 190 11 l 60 -14 "},"ă":{"ha":801,"x_min":0,"x_max":0,"o":"m 222 971 b 381 882 222 907 306 882 b 539 971 456 882 539 907 l 547 971 b 381 750 547 838 499 750 b 214 971 263 750 214 838 l 222 971 m 454 353 l 454 424 b 322 639 454 531 426 639 b 161 586 249 639 186 610 b 322 504 249 619 322 569 b 206 404 322 442 261 404 b 99 501 143 404 99 444 b 360 650 99 590 219 650 b 649 424 589 650 649 550 l 649 67 b 700 15 649 36 667 15 b 794 90 722 15 767 35 l 801 88 b 617 -14 769 18 697 -14 b 454 108 531 -14 454 14 l 454 165 b 238 -14 433 49 364 -14 b 50 157 128 -14 50 54 b 354 353 50 274 151 353 m 339 44 b 454 251 394 44 454 94 l 454 344 l 403 344 b 261 175 318 344 261 267 b 339 44 261 93 289 44 "},"ĺ":{"ha":476,"x_min":0,"x_max":0,"o":"m 43 1142 l 40 1150 l 349 1261 b 453 1188 403 1281 453 1235 b 363 1111 453 1140 410 1106 m 142 8 l 142 1033 l 22 1033 l 22 1042 l 336 1042 l 336 8 l 456 8 l 456 0 l 22 0 l 22 8 "},"―":{"ha":794,"x_min":0,"x_max":0,"o":"m 711 386 l 711 378 l 83 378 l 83 386 "},"œ":{"ha":1240,"x_min":0,"x_max":0,"o":"m 43 319 b 382 653 43 500 172 653 b 639 544 492 653 579 611 b 901 653 699 615 792 653 b 1206 358 1108 653 1206 510 l 779 358 b 779 333 779 350 779 342 b 940 0 779 154 810 0 b 1199 199 1071 0 1164 85 l 1207 199 b 904 -14 1171 78 1072 -14 b 639 94 794 -14 700 24 b 382 -14 581 28 492 -14 b 43 319 172 -14 43 139 m 251 319 b 382 -6 251 154 279 -6 b 513 319 485 -6 513 154 b 382 644 513 485 485 644 b 251 319 279 644 251 485 m 901 644 b 779 367 813 644 783 513 l 999 367 b 901 644 999 486 990 644 "},"Ĭ":{"ha":579,"x_min":0,"x_max":0,"o":"m 133 1374 b 292 1285 133 1310 217 1285 b 450 1374 367 1285 450 1310 l 458 1374 b 292 1153 458 1240 410 1153 b 125 1374 174 1153 125 1240 l 133 1374 m 178 8 l 178 1033 l 25 1033 l 25 1042 l 558 1042 l 558 1033 l 392 1033 l 392 8 l 558 8 l 558 0 l 25 0 l 25 8 "},"ď":{"ha":976,"x_min":0,"x_max":0,"o":"m 819 1001 b 954 1125 819 1068 881 1125 b 1093 939 1029 1125 1093 1061 b 817 681 1093 800 983 681 l 817 689 b 1078 1000 976 689 1111 808 b 944 878 1067 938 1017 878 b 819 1001 867 878 819 935 m 840 0 l 554 0 l 554 219 b 338 -14 532 69 457 -14 b 43 319 186 -14 43 111 b 338 651 43 528 186 651 b 554 419 457 651 532 568 l 554 1033 l 463 1033 l 463 1042 l 749 1042 l 749 8 l 840 8 m 554 319 b 381 629 554 531 465 629 b 265 319 299 629 265 521 b 383 10 265 118 301 10 b 554 319 468 10 554 108 "},"Ľ":{"ha":917,"x_min":0,"x_max":0,"o":"m 589 1015 b 724 1139 589 1082 650 1139 b 863 953 799 1139 863 1075 b 586 694 863 814 753 694 l 586 703 b 847 1014 746 703 881 822 b 714 892 836 951 786 892 b 589 1015 636 892 589 949 m 25 0 l 25 8 l 150 8 l 150 1033 l 25 1033 l 25 1042 l 489 1042 l 489 1033 l 364 1033 l 364 8 l 507 8 b 818 313 711 8 797 136 l 826 313 l 826 0 "},"ẞ":{"ha":1238,"x_min":0,"x_max":0,"o":"m 146 8 l 146 613 b 733 1056 146 908 403 1056 b 1140 911 946 1056 1092 964 l 858 561 b 1182 281 1106 522 1182 414 b 800 -14 1182 93 1010 -14 b 479 224 582 -14 479 110 b 600 353 479 301 531 353 b 711 236 663 353 711 307 b 593 125 711 171 654 125 b 494 192 543 125 506 161 b 758 1 508 94 611 1 b 956 278 906 1 956 126 b 636 568 956 401 906 568 l 636 576 l 975 997 b 733 1047 931 1017 843 1047 b 368 599 464 1047 368 858 l 368 8 l 493 8 l 493 0 l 21 0 l 21 8 "},"Ť":{"ha":940,"x_min":0,"x_max":0,"o":"m 700 1331 l 704 1326 l 538 1139 l 419 1139 l 253 1326 l 258 1331 l 478 1236 m 364 8 l 364 1033 l 275 1033 b 33 708 126 1033 54 885 l 25 708 l 25 1042 l 919 1042 l 919 708 l 911 708 b 669 1033 890 885 818 1033 l 581 1033 l 581 8 l 733 8 l 733 0 l 211 0 l 211 8 "},"ů":{"ha":844,"x_min":0,"x_max":0,"o":"m 249 861 b 388 986 249 932 303 986 b 526 861 472 986 526 932 b 388 736 526 790 472 736 b 249 861 303 736 249 790 m 332 861 b 388 744 332 790 344 744 b 443 861 431 744 443 790 b 388 978 443 932 431 978 b 332 861 344 978 332 932 m 308 200 b 379 29 308 83 321 29 b 538 329 504 29 538 200 l 538 631 l 447 631 l 447 639 l 732 639 l 732 8 l 825 8 l 825 0 l 538 0 l 538 222 b 311 -14 521 104 468 -14 b 114 196 157 -14 114 75 l 114 631 l 22 631 l 22 639 l 308 639 "},"į":{"ha":425,"x_min":0,"x_max":0,"o":"m 86 938 b 204 1056 86 1004 138 1056 b 322 938 271 1056 322 1004 b 204 819 322 871 271 819 b 86 938 138 819 86 871 m 121 8 l 121 631 l 29 631 l 29 639 l 315 639 l 315 8 l 408 8 l 408 0 l 219 0 b 171 -161 194 -24 171 -82 b 240 -283 171 -239 200 -283 b 324 -214 279 -283 301 -253 l 329 -217 b 157 -318 308 -256 276 -318 b -15 -199 65 -318 -15 -282 b 185 0 -15 -101 88 -36 l 29 0 l 29 8 "},"đ":{"ha":861,"x_min":0,"x_max":0,"o":"m 840 0 l 554 0 l 554 219 b 338 -14 532 69 457 -14 b 43 319 186 -14 43 111 b 338 651 43 528 186 651 b 554 419 457 651 532 568 l 554 788 l 426 788 l 426 796 l 554 796 l 554 1033 l 463 1033 l 463 1042 l 749 1042 l 749 796 l 851 796 l 851 788 l 749 788 l 749 8 l 840 8 m 554 319 b 381 629 554 531 465 629 b 265 319 299 629 265 521 b 383 10 265 118 301 10 b 554 319 468 10 554 108 "},"´":{"ha":569,"x_min":0,"x_max":0,"o":"m 83 1003 l 81 1011 l 389 1122 b 493 1049 443 1142 493 1096 b 403 972 493 1001 450 967 "},"İ":{"ha":579,"x_min":0,"x_max":0,"o":"m 182 1269 b 289 1376 182 1329 229 1376 b 394 1269 347 1376 394 1329 b 289 1164 394 1211 347 1164 b 182 1269 229 1164 182 1211 m 178 8 l 178 1033 l 25 1033 l 25 1042 l 558 1042 l 558 1033 l 392 1033 l 392 8 l 558 8 l 558 0 l 25 0 l 25 8 "},"ﬄ":{"ha":1375,"x_min":0,"x_max":0,"o":"m 142 8 l 142 631 l 17 631 l 17 639 l 142 639 l 142 642 b 500 986 142 836 292 986 b 650 932 561 986 614 964 b 919 1056 711 1008 806 1056 b 1050 1014 974 1056 1017 1040 l 1243 1069 l 1243 8 l 1354 8 l 1354 0 l 17 0 l 17 8 m 764 631 l 764 8 l 1049 8 l 1049 785 b 1004 776 1035 779 1021 776 b 892 879 949 776 892 810 b 1000 986 892 949 939 986 b 1049 974 1019 986 1036 981 l 1049 1003 b 926 1047 1018 1029 975 1047 b 764 750 804 1047 764 926 l 764 639 l 956 639 l 956 631 m 331 639 l 576 639 l 576 708 b 486 811 529 717 486 750 b 592 917 486 881 533 917 b 633 907 606 917 621 913 b 643 922 636 913 640 918 b 506 978 611 953 563 978 b 331 681 396 978 331 857 m 576 8 l 576 631 l 331 631 l 331 8 "},"Ř":{"ha":1031,"x_min":0,"x_max":0,"o":"m 718 1296 l 722 1292 l 556 1104 l 438 1104 l 271 1292 l 276 1296 l 496 1201 m 164 8 l 164 1033 l 25 1033 l 25 1042 l 511 1042 b 900 785 742 1042 900 965 b 589 535 900 624 786 550 b 939 7 1040 532 768 7 b 1014 25 968 7 994 17 l 1017 17 b 850 -11 994 4 932 -11 b 475 531 471 -11 817 531 l 378 531 l 378 8 l 517 8 l 517 0 l 25 0 l 25 8 m 378 1033 l 378 539 l 475 539 b 678 785 608 539 678 619 b 475 1033 678 950 608 1033 "},"ŗ":{"ha":651,"x_min":0,"x_max":0,"o":"m 114 8 l 114 631 l 22 631 l 22 639 l 308 639 l 308 436 b 489 653 321 556 364 653 b 644 506 567 653 644 594 b 529 386 644 442 603 386 b 413 497 463 386 413 428 b 617 558 413 604 556 647 b 488 644 599 614 540 644 b 308 310 326 644 308 463 l 308 8 l 400 8 l 400 0 l 22 0 l 22 8 m 88 -207 b 222 -83 88 -140 149 -83 b 361 -269 297 -83 361 -147 b 85 -528 361 -408 251 -528 l 85 -519 b 346 -208 244 -519 379 -400 b 213 -331 335 -271 285 -331 b 88 -207 135 -331 88 -274 "},"Ĺ":{"ha":854,"x_min":0,"x_max":0,"o":"m 289 1156 l 286 1164 l 594 1275 b 699 1201 649 1294 699 1249 b 608 1125 699 1154 656 1119 m 25 0 l 25 8 l 150 8 l 150 1033 l 25 1033 l 25 1042 l 489 1042 l 489 1033 l 364 1033 l 364 8 l 507 8 b 818 313 711 8 797 136 l 826 313 l 826 0 "},"‐":{"ha":500,"x_min":0,"x_max":0,"o":"m 417 386 l 417 378 l 83 378 l 83 386 "},"ˇ":{"ha":590,"x_min":0,"x_max":0,"o":"m 517 1088 l 521 1083 l 354 896 l 236 896 l 69 1083 l 75 1088 l 294 993 "},"ł":{"ha":476,"x_min":0,"x_max":0,"o":"m 142 8 l 142 592 l 15 517 l 15 528 l 142 603 l 142 1033 l 22 1033 l 22 1042 l 336 1042 l 336 719 l 481 806 l 481 794 l 336 708 l 336 8 l 456 8 l 456 0 l 22 0 l 22 8 "},"Ň":{"ha":1040,"x_min":0,"x_max":0,"o":"m 764 1296 l 768 1292 l 601 1104 l 483 1104 l 317 1292 l 322 1296 l 542 1201 m 164 8 l 164 1033 l 25 1033 l 25 1042 l 419 1042 l 867 354 l 867 1033 l 708 1033 l 708 1042 l 1019 1042 l 1019 1033 l 875 1033 l 875 -14 l 861 -14 l 172 1029 l 172 8 l 333 8 l 333 0 l 25 0 l 25 8 "},"ĳ":{"ha":829,"x_min":0,"x_max":0,"o":"m 86 938 b 204 1056 86 1004 138 1056 b 322 938 271 1056 322 1004 b 204 819 322 871 271 819 b 86 938 138 819 86 871 m 499 938 b 617 1056 499 1004 550 1056 b 735 938 683 1056 735 1004 b 617 819 735 871 683 819 b 499 938 550 819 499 871 m 121 8 l 121 631 l 29 631 l 29 639 l 315 639 l 315 8 l 408 8 l 408 0 l 29 0 l 29 8 m 725 -17 b 424 -361 725 -199 618 -361 b 211 -196 297 -361 211 -287 b 325 -82 211 -126 264 -82 b 438 -185 381 -82 438 -115 b 318 -290 438 -251 390 -290 b 233 -226 271 -290 239 -260 b 407 -350 238 -287 310 -350 b 528 29 553 -350 528 -147 l 531 631 l 411 631 l 411 639 l 725 639 "},"ȓ":{"ha":651,"x_min":0,"x_max":0,"o":"m 179 736 b 346 957 179 869 228 957 b 513 736 464 957 513 869 l 504 736 b 346 825 504 800 421 825 b 188 736 271 825 188 800 m 114 8 l 114 631 l 22 631 l 22 639 l 308 639 l 308 436 b 489 653 321 556 364 653 b 644 506 567 653 644 594 b 529 386 644 442 603 386 b 413 497 463 386 413 428 b 617 558 413 604 556 647 b 488 644 599 614 540 644 b 308 310 326 644 308 463 l 308 8 l 400 8 l 400 0 l 22 0 l 22 8 "},"Ŝ":{"ha":829,"x_min":0,"x_max":0,"o":"m 200 1114 l 196 1118 l 363 1306 l 481 1306 l 647 1118 l 643 1114 l 421 1208 m 58 -14 l 58 313 l 68 313 b 419 -11 121 151 219 -11 b 633 196 553 -11 633 74 b 72 778 633 460 72 375 b 381 1056 72 951 219 1056 b 590 975 465 1056 535 1028 l 711 1056 l 719 1056 l 719 743 l 710 743 b 389 1044 654 932 546 1044 b 219 879 276 1044 219 975 b 775 299 219 643 775 700 b 428 -21 775 104 624 -21 b 192 74 325 -21 250 17 l 67 -14 "},"‾":{"ha":500,"x_min":0,"x_max":0,"o":"m 507 1101 l 507 1093 l -7 1093 l -7 1101 "},"Ŵ":{"ha":1531,"x_min":0,"x_max":0,"o":"m 553 1149 l 549 1153 l 715 1340 l 833 1340 l 1000 1153 l 996 1149 l 774 1243 m 1056 1033 l 925 683 l 1083 239 l 1381 1033 l 1239 1033 l 1239 1042 l 1517 1042 l 1517 1033 l 1389 1033 l 1000 -14 l 956 -14 l 769 499 l 575 -14 l 511 -14 l 131 1033 l 17 1033 l 17 1042 l 1178 1042 l 1178 1033 m 764 513 l 575 1033 l 375 1033 l 660 239 m 919 694 l 1046 1033 l 799 1033 "},"ŕ":{"ha":651,"x_min":0,"x_max":0,"o":"m 131 781 l 128 789 l 436 900 b 540 826 490 919 540 874 b 450 750 540 779 497 744 m 114 8 l 114 631 l 22 631 l 22 639 l 308 639 l 308 436 b 489 653 321 556 364 653 b 644 506 567 653 644 594 b 529 386 644 442 603 386 b 413 497 463 386 413 428 b 617 558 413 604 556 647 b 488 644 599 614 540 644 b 308 310 326 644 308 463 l 308 8 l 400 8 l 400 0 l 22 0 l 22 8 "},"Ž":{"ha":857,"x_min":0,"x_max":0,"o":"m 649 1331 l 653 1326 l 486 1139 l 368 1139 l 201 1326 l 207 1331 l 426 1236 m 794 1042 l 794 1033 l 261 8 l 517 8 b 800 285 707 8 772 108 l 808 285 l 808 0 l 17 0 l 17 8 l 553 1033 l 336 1033 b 53 785 146 1033 81 933 l 44 785 l 44 1042 "},"Ů":{"ha":1003,"x_min":0,"x_max":0,"o":"m 372 1264 b 511 1389 372 1335 426 1389 b 650 1264 596 1389 650 1335 b 511 1139 650 1193 596 1139 b 372 1264 426 1139 372 1193 m 456 1264 b 511 1147 456 1193 468 1147 b 567 1264 554 1147 567 1193 b 511 1381 567 1335 554 1381 b 456 1264 468 1381 456 1335 m 503 1042 l 503 1033 l 364 1033 l 364 333 b 578 -3 364 150 399 -3 b 839 319 738 -3 839 96 l 839 1033 l 711 1033 l 711 1042 l 983 1042 l 983 1033 l 847 1033 l 847 319 b 525 -21 847 90 751 -21 b 150 319 264 -21 150 79 l 150 1033 l 25 1033 l 25 1042 "},"ﬃ":{"ha":1292,"x_min":0,"x_max":0,"o":"m 142 8 l 142 631 l 17 631 l 17 639 l 142 639 l 142 642 b 500 986 142 836 292 986 b 643 938 557 986 607 967 b 947 1056 708 1011 813 1056 b 1174 890 1094 1056 1174 976 b 1067 776 1174 819 1129 776 b 954 879 1011 776 954 813 b 1063 986 954 946 1004 986 b 1153 925 1114 986 1144 958 b 947 1047 1139 992 1069 1047 b 750 750 796 1047 750 926 l 750 639 l 1169 639 l 1169 8 l 1267 8 l 1267 0 l 17 0 l 17 8 m 563 711 b 486 811 521 724 486 757 b 592 917 486 881 533 917 b 622 913 603 917 613 915 b 635 929 626 918 631 924 b 506 976 604 956 560 976 b 331 681 396 976 331 857 l 331 639 l 563 639 l 563 711 m 563 8 l 563 631 l 331 631 l 331 8 m 750 631 l 750 8 l 975 8 l 975 631 "},"ź":{"ha":654,"x_min":0,"x_max":0,"o":"m 167 753 l 164 761 l 472 872 b 576 799 526 892 576 846 b 486 722 576 751 533 717 m 281 631 b 63 400 150 631 83 540 l 54 400 l 54 639 l 611 639 l 611 631 l 235 8 l 375 8 b 625 256 538 8 604 83 l 633 256 l 633 0 l 15 0 l 15 8 l 390 631 l 281 631 "},"Ċ":{"ha":975,"x_min":0,"x_max":0,"o":"m 463 1269 b 569 1376 463 1329 510 1376 b 675 1269 628 1376 675 1329 b 569 1164 675 1211 628 1164 b 463 1269 510 1164 463 1211 m 919 0 l 914 0 l 800 78 b 558 -14 739 21 658 -14 b 58 521 249 -14 58 211 b 558 1056 58 831 249 1056 b 776 969 646 1056 718 1024 l 900 1042 l 906 1042 l 906 736 l 897 736 b 572 1042 847 914 728 1042 b 303 521 365 1042 303 774 b 572 0 303 268 365 0 b 911 306 760 0 867 139 l 919 306 "},"³":{"ha":625,"x_min":0,"x_max":0,"o":"m 533 806 b 304 626 533 693 429 626 b 111 769 172 626 111 700 b 183 846 111 815 142 846 b 250 776 221 846 250 819 b 179 710 250 738 217 710 b 124 740 151 710 133 722 b 285 636 133 690 189 636 b 399 806 376 636 399 715 b 256 969 399 879 375 969 l 256 975 b 374 1128 367 975 374 1069 b 293 1258 374 1193 351 1258 b 157 1179 233 1258 174 1224 b 208 1204 169 1199 189 1204 b 272 1140 242 1204 272 1179 b 204 1071 272 1096 238 1071 b 136 1139 167 1071 136 1094 b 308 1267 136 1211 222 1267 b 508 1124 417 1267 508 1215 b 307 972 508 1047 465 983 b 533 806 476 961 533 893 "},"˜":{"ha":622,"x_min":0,"x_max":0,"o":"m 165 908 b 78 826 115 908 78 878 l 69 826 b 207 1031 69 944 118 1031 b 457 921 318 1031 367 921 b 544 1003 513 921 544 951 l 553 1003 b 429 799 553 871 532 799 b 165 908 322 799 265 908 "},"Ġ":{"ha":1051,"x_min":0,"x_max":0,"o":"m 463 1269 b 569 1376 463 1329 510 1376 b 675 1269 628 1376 675 1329 b 569 1164 675 1211 628 1164 b 463 1269 510 1164 463 1211 m 1039 400 l 1039 392 l 969 392 l 969 215 b 553 -14 879 121 779 -14 b 58 521 243 -14 58 197 b 572 1056 58 844 290 1056 b 792 975 653 1056 729 1025 l 928 1042 l 933 1042 l 933 736 l 925 736 b 592 1042 896 883 758 1042 b 303 521 385 1042 303 774 b 553 -4 303 268 353 -4 b 739 174 669 -4 718 115 l 739 392 l 594 392 l 594 400 "},"ć":{"ha":711,"x_min":0,"x_max":0,"o":"m 192 789 l 189 797 l 497 908 b 601 835 551 928 601 882 b 511 758 601 788 558 753 m 619 531 b 419 642 597 590 511 642 b 272 319 289 642 272 450 b 421 3 272 161 303 3 b 650 199 535 3 614 83 l 658 199 b 388 -14 622 78 542 -14 b 43 319 185 -14 43 97 b 396 653 43 514 165 653 b 658 464 544 653 658 571 b 547 353 658 393 610 353 b 433 461 492 353 433 381 b 539 567 433 531 492 567 b 619 531 581 567 606 550 "},"Ŭ":{"ha":1003,"x_min":0,"x_max":0,"o":"m 344 1374 b 503 1285 344 1310 428 1285 b 661 1374 578 1285 661 1310 l 669 1374 b 503 1153 669 1240 621 1153 b 336 1374 385 1153 336 1240 l 344 1374 m 503 1042 l 503 1033 l 364 1033 l 364 333 b 578 -3 364 150 399 -3 b 839 319 738 -3 839 96 l 839 1033 l 711 1033 l 711 1042 l 983 1042 l 983 1033 l 847 1033 l 847 319 b 525 -21 847 90 751 -21 b 150 319 264 -21 150 79 l 150 1033 l 25 1033 l 25 1042 "},"Ģ":{"ha":1051,"x_min":0,"x_max":0,"o":"m 1039 400 l 1039 392 l 969 392 l 969 215 b 553 -14 879 121 779 -14 b 58 521 243 -14 58 197 b 572 1056 58 844 290 1056 b 792 975 653 1056 729 1025 l 928 1042 l 933 1042 l 933 736 l 925 736 b 592 1042 896 883 758 1042 b 303 521 385 1042 303 774 b 553 -4 303 268 353 -4 b 739 174 669 -4 718 115 l 739 392 l 594 392 l 594 400 m 425 -221 b 560 -97 425 -154 486 -97 b 699 -283 635 -97 699 -161 b 422 -542 699 -422 589 -542 l 422 -533 b 683 -222 582 -533 717 -414 b 550 -344 672 -285 622 -344 b 425 -221 472 -344 425 -287 "},"№":{"ha":1592,"x_min":0,"x_max":0,"o":"m 1042 792 b 1297 1056 1042 965 1150 1056 b 1553 792 1444 1056 1553 965 b 1297 528 1553 618 1444 528 b 1042 792 1150 528 1042 618 m 1201 792 b 1297 536 1201 633 1229 536 b 1393 792 1365 536 1393 633 b 1297 1047 1393 950 1365 1047 b 1201 792 1229 1047 1201 950 m 164 8 l 164 1033 l 25 1033 l 25 1042 l 419 1042 l 867 354 l 867 1033 l 708 1033 l 708 1042 l 1019 1042 l 1019 1033 l 875 1033 l 875 -14 l 861 -14 l 172 1029 l 172 8 l 333 8 l 333 0 l 25 0 l 25 8 m 1464 442 l 1464 433 l 1131 433 l 1131 442 "},"ę":{"ha":724,"x_min":0,"x_max":0,"o":"m 576 -222 b 404 -324 556 -261 524 -324 b 232 -204 313 -324 232 -287 b 413 -12 232 -114 322 -50 b 383 -14 403 -14 393 -14 b 43 319 188 -14 43 104 b 381 653 43 535 185 653 b 685 358 588 653 685 510 l 258 358 b 258 333 258 350 258 342 b 419 0 258 154 289 0 b 453 1 431 0 442 0 b 474 8 460 4 467 7 l 475 6 b 678 199 576 26 649 101 l 686 199 b 467 -6 657 100 585 19 b 418 -167 442 -29 418 -87 b 488 -289 418 -244 447 -289 b 571 -219 526 -289 549 -258 l 576 -222 m 381 644 b 258 367 292 644 263 513 l 478 367 b 381 644 478 486 469 644 "},"Ă":{"ha":1086,"x_min":0,"x_max":0,"o":"m 394 1381 b 553 1292 394 1317 478 1292 b 711 1381 628 1292 711 1317 l 719 1381 b 553 1160 719 1247 671 1160 b 386 1381 435 1160 386 1247 l 394 1381 m 156 8 l 525 1063 l 600 1063 l 967 8 l 1067 8 l 1067 0 l 594 0 l 594 8 l 717 8 l 610 336 l 278 336 l 164 8 l 331 8 l 331 0 l 25 0 l 25 8 m 282 344 l 607 344 l 450 828 "},"č":{"ha":711,"x_min":0,"x_max":0,"o":"m 625 928 l 629 924 l 463 736 l 344 736 l 178 924 l 183 928 l 403 833 m 619 531 b 419 642 597 590 511 642 b 272 319 289 642 272 450 b 421 3 272 161 303 3 b 650 199 535 3 614 83 l 658 199 b 388 -14 622 78 542 -14 b 43 319 185 -14 43 97 b 396 653 43 514 165 653 b 658 464 544 653 658 571 b 547 353 658 393 610 353 b 433 461 492 353 433 381 b 539 567 433 531 492 567 b 619 531 581 567 606 550 "},"ċ":{"ha":711,"x_min":0,"x_max":0,"o":"m 299 867 b 406 974 299 926 346 974 b 511 867 464 974 511 926 b 406 761 511 808 464 761 b 299 867 346 761 299 808 m 619 531 b 419 642 597 590 511 642 b 272 319 289 642 272 450 b 421 3 272 161 303 3 b 650 199 535 3 614 83 l 658 199 b 388 -14 622 78 542 -14 b 43 319 185 -14 43 97 b 396 653 43 514 165 653 b 658 464 544 653 658 571 b 547 353 658 393 610 353 b 433 461 492 353 433 381 b 539 567 433 531 492 567 b 619 531 581 567 606 550 "},"‒":{"ha":618,"x_min":0,"x_max":0,"o":"m 535 386 l 535 378 l 83 378 l 83 386 "},"˚":{"ha":444,"x_min":0,"x_max":0,"o":"m 83 944 b 222 1069 83 1015 138 1069 b 361 944 307 1069 361 1015 b 222 819 361 874 307 819 b 83 944 138 819 83 874 m 167 944 b 222 828 167 874 179 828 b 278 944 265 828 278 874 b 222 1061 278 1015 265 1061 b 167 944 179 1061 167 1015 "},"Ō":{"ha":1058,"x_min":0,"x_max":0,"o":"m 725 1153 l 725 1144 l 333 1144 l 333 1153 m 531 -14 b 58 521 235 -14 58 218 b 531 1056 58 824 249 1056 b 1003 521 813 1056 1003 824 b 531 -14 1003 218 826 -14 m 531 1049 b 303 521 351 1049 303 808 b 531 -7 303 233 338 -7 b 761 521 724 -7 761 233 b 531 1049 761 808 710 1049 "},"˘":{"ha":417,"x_min":0,"x_max":0,"o":"m 50 1054 b 208 965 50 990 133 965 b 367 1054 283 965 367 990 l 375 1054 b 208 833 375 921 326 833 b 42 1054 90 833 42 921 l 50 1054 "},"Ŗ":{"ha":1031,"x_min":0,"x_max":0,"o":"m 164 8 l 164 1033 l 25 1033 l 25 1042 l 511 1042 b 900 785 742 1042 900 965 b 589 535 900 624 786 550 b 939 7 1040 532 768 7 b 1014 25 968 7 994 17 l 1017 17 b 850 -11 994 4 932 -11 b 475 531 471 -11 817 531 l 378 531 l 378 8 l 517 8 l 517 0 l 25 0 l 25 8 m 378 1033 l 378 539 l 475 539 b 678 785 608 539 678 619 b 475 1033 678 950 608 1033 m 458 -196 b 593 -72 458 -129 519 -72 b 732 -258 668 -72 732 -136 b 456 -517 732 -397 622 -517 l 456 -508 b 717 -197 615 -508 750 -389 b 583 -319 706 -260 656 -319 b 458 -196 506 -319 458 -262 "},"ķ":{"ha":872,"x_min":0,"x_max":0,"o":"m 142 8 l 142 1033 l 22 1033 l 22 1042 l 336 1042 l 336 397 l 664 631 l 499 631 l 499 639 l 797 639 l 797 631 l 678 631 l 451 465 l 806 8 l 865 8 l 865 0 l 479 0 l 479 8 l 567 8 l 336 317 l 336 8 l 413 8 l 413 0 l 22 0 l 22 8 m 318 -207 b 453 -83 318 -140 379 -83 b 592 -269 528 -83 592 -147 b 315 -528 592 -408 482 -528 l 315 -519 b 576 -208 475 -519 610 -400 b 443 -331 565 -271 515 -331 b 318 -207 365 -331 318 -274 "}}}
